<svg xmlns="http://www.w3.org/2000/svg" xmlns:svg="http://www.w3.org/2000/svg" id="svg2" width="899.817" height="269.464" version="1.1" viewBox="0 0 899.817 269.464" xml:space="preserve"><metadata id="metadata8"/><defs id="defs6"><clipPath id="clipPath18" clipPathUnits="userSpaceOnUse"><path id="path16" d="M 0,-0.4 H 793.6 V 446 H 0 Z" clip-rule="evenodd"/></clipPath><clipPath id="clipPath80" clipPathUnits="userSpaceOnUse"><path id="path78" d="m 126.4,301.7 h 91.7 v 6.2 h -91.7 z"/></clipPath><clipPath id="clipPath104" clipPathUnits="userSpaceOnUse"><path id="path102" d="m 127.4,284.7 h 86.1 v 6.2 h -86.1 z"/></clipPath><clipPath id="clipPath148" clipPathUnits="userSpaceOnUse"><path id="path146" d="M 320.3,302.5 H 412 v 6.2 h -91.7 z"/></clipPath><clipPath id="clipPath172" clipPathUnits="userSpaceOnUse"><path id="path170" d="m 321.3,285.5 h 86.1 v 6.2 h -86.1 z"/></clipPath><clipPath id="clipPath216" clipPathUnits="userSpaceOnUse"><path id="path214" d="m 507.4,302.5 h 91.8 v 6.2 h -91.8 z"/></clipPath><clipPath id="clipPath240" clipPathUnits="userSpaceOnUse"><path id="path238" d="m 508.4,285.5 h 86.1 v 6.2 h -86.1 z"/></clipPath><clipPath id="clipPath344" clipPathUnits="userSpaceOnUse"><path id="path342" d="M 91.5,141.6 H 650.7 V 165 H 91.5 Z"/></clipPath><clipPath id="clipPath368" clipPathUnits="userSpaceOnUse"><path id="path366" d="M 143.4,180.3 H 221 v 6.2 h -77.6 z"/></clipPath><clipPath id="clipPath392" clipPathUnits="userSpaceOnUse"><path id="path390" d="m 316.7,180.3 h 95.1 v 6.2 h -95.1 z"/></clipPath><clipPath id="clipPath416" clipPathUnits="userSpaceOnUse"><path id="path414" d="M 509.6,180.2 H 601 v 6.2 h -91.4 z"/></clipPath></defs><g id="g10" transform="matrix(1.3333333,0,0,-1.3333333,-33.509466,458.26405)"><g id="g12"><g id="g14" clip-path="url(#clipPath18)"><path id="path22" fill="#f2f2f2" fill-opacity="1" fill-rule="evenodd" stroke="none" d="m 25.5,310.4 v 0 0.3 0.4 l 0.1,0.3 0.1,0.3 v 0.4 l 0.1,0.3 0.1,0.3 0.2,0.3 0.1,0.3 0.2,0.3 0.2,0.3 0.2,0.3 0.2,0.2 0.2,0.3 0.2,0.3 0.2,0.2 0.3,0.2 0.3,0.2 0.3,0.2 0.2,0.2 0.3,0.1 0.3,0.2 0.4,0.1 0.3,0.1 0.3,0.1 0.3,0.1 0.4,0.1 h 0.3 l 0.3,0.1 h 0.4 86.7 v 0 h 0.3 l 0.4,-0.1 h 0.3 l 0.3,-0.1 0.4,-0.1 0.3,-0.1 0.3,-0.1 0.3,-0.1 0.3,-0.2 0.3,-0.1 0.3,-0.2 0.3,-0.2 0.2,-0.2 0.3,-0.2 0.3,-0.2 0.2,-0.3 0.2,-0.3 0.2,-0.2 0.2,-0.3 0.2,-0.3 0.1,-0.3 0.2,-0.3 0.1,-0.3 0.1,-0.3 0.1,-0.3 0.1,-0.4 0.1,-0.3 v -0.3 -0.4 -0.3 l 0.1,-25.9 h -0.1 v -0.4 -0.3 -0.3 l -0.1,-0.4 -0.1,-0.3 -0.1,-0.3 -0.1,-0.3 -0.1,-0.3 -0.2,-0.3 -0.1,-0.3 -0.2,-0.3 -0.2,-0.3 -0.2,-0.3 -0.2,-0.2 -0.2,-0.3 -0.3,-0.2 -0.2,-0.2 -0.3,-0.2 -0.3,-0.2 -0.3,-0.2 -0.3,-0.2 -0.3,-0.1 -0.3,-0.2 -0.3,-0.1 -0.3,-0.1 H 120 l -0.3,-0.1 -0.3,-0.1 H 119.1 118.7 32 v 0 h -0.4 -0.3 l -0.3,0.1 -0.4,0.1 h -0.3 l -0.3,0.1 -0.3,0.1 -0.3,0.2 -0.3,0.1 -0.4,0.2 -0.2,0.2 -0.3,0.1 -0.3,0.3 -0.2,0.2 -0.3,0.2 -0.2,0.2 -0.2,0.3 -0.2,0.3 -0.2,0.2 -0.2,0.3 -0.2,0.3 -0.1,0.3 -0.2,0.4 -0.1,0.3 -0.1,0.3 v 0.3 l -0.1,0.3 -0.1,0.4 v 0.3 0.4 z m 0,6.5 z M 125.2,278 Z"/><g id="g24"><path id="path26" fill="none" stroke="#000" stroke-dasharray="none" stroke-linecap="butt" stroke-linejoin="round" stroke-miterlimit="10" stroke-opacity="1" stroke-width=".736" d="m 25.5,310.4 v 0 0.3 0.4 l 0.1,0.3 0.1,0.3 v 0.4 l 0.1,0.3 0.1,0.3 0.2,0.3 0.1,0.3 0.2,0.3 0.2,0.3 0.2,0.3 0.2,0.2 0.2,0.3 0.2,0.3 0.2,0.2 0.3,0.2 0.3,0.2 0.3,0.2 0.2,0.2 0.3,0.1 0.3,0.2 0.4,0.1 0.3,0.1 0.3,0.1 0.3,0.1 0.4,0.1 h 0.3 l 0.3,0.1 h 0.4 86.7 v 0 h 0.3 l 0.4,-0.1 h 0.3 l 0.3,-0.1 0.4,-0.1 0.3,-0.1 0.3,-0.1 0.3,-0.1 0.3,-0.2 0.3,-0.1 0.3,-0.2 0.3,-0.2 0.2,-0.2 0.3,-0.2 0.3,-0.2 0.2,-0.3 0.2,-0.3 0.2,-0.2 0.2,-0.3 0.2,-0.3 0.1,-0.3 0.2,-0.3 0.1,-0.3 0.1,-0.3 0.1,-0.3 0.1,-0.4 0.1,-0.3 v -0.3 -0.4 -0.3 l 0.1,-25.9 h -0.1 v -0.4 -0.3 -0.3 l -0.1,-0.4 -0.1,-0.3 -0.1,-0.3 -0.1,-0.3 -0.1,-0.3 -0.2,-0.3 -0.1,-0.3 -0.2,-0.3 -0.2,-0.3 -0.2,-0.3 -0.2,-0.2 -0.2,-0.3 -0.3,-0.2 -0.2,-0.2 -0.3,-0.2 -0.3,-0.2 -0.3,-0.2 -0.3,-0.2 -0.3,-0.1 -0.3,-0.2 -0.3,-0.1 -0.3,-0.1 H 120 l -0.3,-0.1 -0.3,-0.1 H 119.1 118.7 32 v 0 h -0.4 -0.3 l -0.3,0.1 -0.4,0.1 h -0.3 l -0.3,0.1 -0.3,0.1 -0.3,0.2 -0.3,0.1 -0.4,0.2 -0.2,0.2 -0.3,0.1 -0.3,0.3 -0.2,0.2 -0.3,0.2 -0.2,0.2 -0.2,0.3 -0.2,0.3 -0.2,0.2 -0.2,0.3 -0.2,0.3 -0.1,0.3 -0.2,0.4 -0.1,0.3 -0.1,0.3 v 0.3 l -0.1,0.3 -0.1,0.4 v 0.3 0.4 z"/></g><g id="g28"><path id="path30" fill="none" stroke="#000" stroke-dasharray="none" stroke-linecap="butt" stroke-linejoin="round" stroke-miterlimit="10" stroke-opacity="1" stroke-width=".736" d="M 25.5,316.9 Z"/></g><g id="g32"><path id="path34" fill="none" stroke="#000" stroke-dasharray="none" stroke-linecap="butt" stroke-linejoin="round" stroke-miterlimit="10" stroke-opacity="1" stroke-width=".736" d="M 125.2,278 Z"/></g><g id="g36"><text id="text40" fill="#000" fill-opacity="1" fill-rule="nonzero" stroke="none" font-family="Carlito" font-size="18" font-variant="normal" font-weight="normal" transform="matrix(1,0,0,-1,41.1,290.2)" writing-mode="lr-tb" style="-inkscape-font-specification:Carlito"><tspan id="tspan38" x="0 9.198 15.192 24.678 32.274 41.166 48.24 55.314 59.4" y="0">Process 0</tspan></text></g><path id="path42" fill="#f2f2f2" fill-opacity="1" fill-rule="evenodd" stroke="none" d="m 216.9,310.4 v 0 0.3 0.4 l 0.1,0.3 v 0.3 l 0.1,0.4 0.1,0.3 0.1,0.3 0.1,0.3 0.2,0.3 0.2,0.3 0.1,0.3 0.2,0.3 0.2,0.2 0.3,0.3 0.2,0.3 0.2,0.2 0.3,0.2 0.2,0.2 0.3,0.2 0.3,0.2 0.3,0.1 0.3,0.2 0.3,0.1 0.4,0.1 0.3,0.1 0.3,0.1 0.3,0.1 h 0.4 l 0.3,0.1 h 0.3 86.8 v 0 h 0.3 l 0.3,-0.1 h 0.4 l 0.3,-0.1 0.3,-0.1 0.3,-0.1 0.4,-0.1 0.3,-0.1 0.3,-0.2 0.3,-0.1 0.3,-0.2 0.3,-0.2 0.2,-0.2 0.3,-0.2 0.2,-0.2 0.2,-0.3 0.3,-0.3 0.2,-0.2 0.2,-0.3 0.1,-0.3 0.2,-0.3 0.1,-0.3 0.2,-0.3 0.1,-0.3 0.1,-0.3 0.1,-0.4 v -0.3 l 0.1,-0.3 v -0.4 -0.3 -25.9 0 -0.4 -0.3 l -0.1,-0.3 v -0.4 l -0.1,-0.3 -0.1,-0.3 -0.1,-0.3 -0.2,-0.3 -0.1,-0.3 -0.1,-0.3 -0.2,-0.3 -0.2,-0.3 -0.2,-0.3 -0.2,-0.2 -0.3,-0.3 -0.2,-0.2 -0.3,-0.2 -0.2,-0.2 -0.3,-0.2 -0.3,-0.2 -0.3,-0.2 -0.3,-0.1 -0.3,-0.2 -0.3,-0.1 -0.3,-0.1 h -0.4 l -0.3,-0.1 -0.3,-0.1 h -0.4 -0.3 -86.8 v 0 h -0.3 -0.3 l -0.4,0.1 -0.3,0.1 h -0.3 l -0.3,0.1 -0.4,0.1 -0.3,0.2 -0.3,0.1 -0.3,0.2 -0.3,0.2 -0.3,0.1 -0.2,0.3 -0.3,0.2 -0.2,0.2 -0.2,0.2 -0.3,0.3 -0.2,0.3 -0.2,0.2 -0.1,0.3 -0.2,0.3 -0.2,0.3 -0.1,0.4 -0.1,0.3 -0.1,0.3 -0.1,0.3 v 0.3 l -0.1,0.4 v 0.3 0.4 z m 0,6.5 z M 316.5,278 Z"/><g id="g44"><path id="path46" fill="none" stroke="#000" stroke-dasharray="none" stroke-linecap="butt" stroke-linejoin="round" stroke-miterlimit="10" stroke-opacity="1" stroke-width=".99" d="m 216.9,310.4 v 0 0.3 0.4 l 0.1,0.3 v 0.3 l 0.1,0.4 0.1,0.3 0.1,0.3 0.1,0.3 0.2,0.3 0.2,0.3 0.1,0.3 0.2,0.3 0.2,0.2 0.3,0.3 0.2,0.3 0.2,0.2 0.3,0.2 0.2,0.2 0.3,0.2 0.3,0.2 0.3,0.1 0.3,0.2 0.3,0.1 0.4,0.1 0.3,0.1 0.3,0.1 0.3,0.1 h 0.4 l 0.3,0.1 h 0.3 86.8 v 0 h 0.3 l 0.3,-0.1 h 0.4 l 0.3,-0.1 0.3,-0.1 0.3,-0.1 0.4,-0.1 0.3,-0.1 0.3,-0.2 0.3,-0.1 0.3,-0.2 0.3,-0.2 0.2,-0.2 0.3,-0.2 0.2,-0.2 0.2,-0.3 0.3,-0.3 0.2,-0.2 0.2,-0.3 0.1,-0.3 0.2,-0.3 0.1,-0.3 0.2,-0.3 0.1,-0.3 0.1,-0.3 0.1,-0.4 v -0.3 l 0.1,-0.3 v -0.4 -0.3 -25.9 0 -0.4 -0.3 l -0.1,-0.3 v -0.4 l -0.1,-0.3 -0.1,-0.3 -0.1,-0.3 -0.2,-0.3 -0.1,-0.3 -0.1,-0.3 -0.2,-0.3 -0.2,-0.3 -0.2,-0.3 -0.2,-0.2 -0.3,-0.3 -0.2,-0.2 -0.3,-0.2 -0.2,-0.2 -0.3,-0.2 -0.3,-0.2 -0.3,-0.2 -0.3,-0.1 -0.3,-0.2 -0.3,-0.1 -0.3,-0.1 h -0.4 l -0.3,-0.1 -0.3,-0.1 h -0.4 -0.3 -86.8 v 0 h -0.3 -0.3 l -0.4,0.1 -0.3,0.1 h -0.3 l -0.3,0.1 -0.4,0.1 -0.3,0.2 -0.3,0.1 -0.3,0.2 -0.3,0.2 -0.3,0.1 -0.2,0.3 -0.3,0.2 -0.2,0.2 -0.2,0.2 -0.3,0.3 -0.2,0.3 -0.2,0.2 -0.1,0.3 -0.2,0.3 -0.2,0.3 -0.1,0.4 -0.1,0.3 -0.1,0.3 -0.1,0.3 v 0.3 l -0.1,0.4 v 0.3 0.4 z"/></g><g id="g48"><path id="path50" fill="none" stroke="#000" stroke-dasharray="none" stroke-linecap="butt" stroke-linejoin="round" stroke-miterlimit="10" stroke-opacity="1" stroke-width=".99" d="M 216.9,316.9 Z"/></g><g id="g52"><path id="path54" fill="none" stroke="#000" stroke-dasharray="none" stroke-linecap="butt" stroke-linejoin="round" stroke-miterlimit="10" stroke-opacity="1" stroke-width=".99" d="M 316.5,278 Z"/></g><g id="g56"><text id="text60" fill="#000" fill-opacity="1" fill-rule="nonzero" stroke="none" font-family="Carlito" font-size="18" font-variant="normal" font-weight="normal" transform="matrix(1,0,0,-1,232.4,290.2)" writing-mode="lr-tb" style="-inkscape-font-specification:Carlito"><tspan id="tspan58" x="0 9.288 15.282 24.768 32.274 41.256 48.33 55.404 59.49" y="0">Process 1</tspan></text></g><g id="g62"><text id="text66" fill="#000" fill-opacity="1" fill-rule="nonzero" stroke="none" font-family="Carlito" font-size="18" font-variant="normal" font-weight="normal" transform="matrix(1,0,0,-1,46.5,223.5)" writing-mode="lr-tb" style="-inkscape-font-specification:Carlito"><tspan id="tspan64" x="0 9.198 13.302 22.788 31.77 36.162 40.248 48.852 52.938 59.22 63.216 72.702 81.18 85.266 94.752 100.242 104.328 113.814 119.808 129.294 136.8 145.782 152.856 159.93 168.912 175.986 180.072 188.676 196.074 203.67 213.156 221.76 231.246 239.724 243.828 253.314 261.792 265.878 275.274 283.77 289.476" y="0">Pipe, a ring of processes exchanging data</tspan></text></g><g id="g68"><text id="text72" fill="#000" fill-opacity="1" fill-rule="nonzero" stroke="none" font-family="Carlito" font-size="18" font-variant="normal" font-weight="normal" transform="matrix(1,0,0,-1,45.5,331.2)" writing-mode="lr-tb" style="-inkscape-font-specification:Carlito"><tspan id="tspan70" x="0 8.892 17.496 21.6 27.99 40.788 44.892 51.966 60.948 65.034 73.638 81.144 88.65 98.136 106.74 116.226 124.524" y="0">Pairwise exchange</tspan></text></g><g id="g74"><g id="g90"><g id="g88" clip-path="url(#clipPath80)" opacity=".39"><g id="g84"><path id="path82" fill="none" stroke="#000" stroke-dasharray="none" stroke-linecap="butt" stroke-linejoin="round" stroke-miterlimit="10" stroke-opacity="1" stroke-width="2.009" d="m 127.4,304.7 h 85"/></g><path id="path86" fill="#000" fill-opacity="1" fill-rule="evenodd" stroke="none" d="m 218.1,304.7 -6.1,-3 v 6.1 z"/></g></g></g><g id="g92"><path id="path94" fill="none" stroke="#525e66" stroke-dasharray="none" stroke-linecap="butt" stroke-linejoin="round" stroke-miterlimit="10" stroke-opacity="1" stroke-width="2.009" d="m 127.4,306.3 h 85"/></g><path id="path96" fill="#525e66" fill-opacity="1" fill-rule="evenodd" stroke="none" d="m 218.1,306.3 -6.1,-3 v 6 z"/><g id="g98"><g id="g114"><g id="g112" clip-path="url(#clipPath104)" opacity=".39"><g id="g108"><path id="path106" fill="none" stroke="#000" stroke-dasharray="none" stroke-linecap="butt" stroke-linejoin="round" stroke-miterlimit="10" stroke-opacity="1" stroke-width="2.009" d="M 212.4,287.7 H 133"/></g><path id="path110" fill="#000" fill-opacity="1" fill-rule="evenodd" stroke="none" d="m 127.4,287.7 6,3 v -6 z"/></g></g></g><g id="g116"><path id="path118" fill="none" stroke="#525e66" stroke-dasharray="none" stroke-linecap="butt" stroke-linejoin="round" stroke-miterlimit="10" stroke-opacity="1" stroke-width="2.009" d="M 212.4,289.3 H 133"/></g><path id="path120" fill="#525e66" fill-opacity="1" fill-rule="evenodd" stroke="none" d="m 127.4,289.3 6,3 v -6 z"/><path id="path122" fill="#f2f2f2" fill-opacity="1" fill-rule="evenodd" stroke="none" d="m 410.8,311.2 v 0 0.4 l 0.1,0.3 v 0.3 l 0.1,0.3 0.1,0.4 v 0.3 l 0.2,0.3 0.1,0.3 0.1,0.4 0.2,0.2 0.2,0.3 0.2,0.3 0.2,0.3 0.2,0.2 0.2,0.3 0.3,0.2 0.2,0.2 0.3,0.2 0.3,0.2 0.3,0.2 0.2,0.2 0.4,0.1 0.3,0.2 0.3,0.1 h 0.3 l 0.4,0.1 0.3,0.1 h 0.3 l 0.3,0.1 h 0.4 86.7 v 0 h 0.3 l 0.4,-0.1 h 0.3 l 0.3,-0.1 0.4,-0.1 h 0.3 l 0.3,-0.1 0.3,-0.2 0.3,-0.1 0.3,-0.2 0.3,-0.2 0.3,-0.2 0.3,-0.2 0.2,-0.2 0.3,-0.2 0.2,-0.3 0.2,-0.2 0.2,-0.3 0.2,-0.3 0.2,-0.3 0.2,-0.2 0.1,-0.4 0.1,-0.3 0.2,-0.3 v -0.3 l 0.1,-0.4 0.1,-0.3 v -0.3 l 0.1,-0.3 v -0.4 -25.9 0 -0.3 l -0.1,-0.4 v -0.3 l -0.1,-0.3 -0.1,-0.4 v -0.3 l -0.2,-0.3 -0.1,-0.3 -0.1,-0.3 -0.2,-0.3 -0.2,-0.3 -0.2,-0.3 -0.2,-0.2 -0.2,-0.3 -0.2,-0.3 -0.3,-0.2 -0.2,-0.2 -0.3,-0.2 -0.3,-0.2 -0.2,-0.2 -0.4,-0.2 -0.3,-0.1 -0.3,-0.1 -0.3,-0.1 -0.3,-0.1 -0.3,-0.1 -0.4,-0.1 h -0.3 l -0.3,-0.1 H 504 417.3 v 0 h -0.4 l -0.3,0.1 h -0.3 l -0.3,0.1 -0.4,0.1 -0.3,0.1 -0.3,0.1 -0.3,0.1 -0.3,0.1 -0.3,0.2 -0.3,0.2 -0.3,0.2 -0.3,0.2 -0.2,0.2 -0.3,0.2 -0.2,0.3 -0.2,0.2 -0.2,0.3 -0.2,0.3 -0.2,0.2 -0.2,0.4 -0.1,0.3 -0.1,0.3 -0.2,0.3 v 0.3 l -0.1,0.3 -0.1,0.4 v 0.3 l -0.1,0.3 v 0.4 z m 0,6.5 z m 99.7,-38.9 z"/><g id="g124"><path id="path126" fill="none" stroke="#000" stroke-dasharray="none" stroke-linecap="butt" stroke-linejoin="round" stroke-miterlimit="10" stroke-opacity="1" stroke-width=".99" d="m 410.8,311.2 v 0 0.4 l 0.1,0.3 v 0.3 l 0.1,0.3 0.1,0.4 v 0.3 l 0.2,0.3 0.1,0.3 0.1,0.4 0.2,0.2 0.2,0.3 0.2,0.3 0.2,0.3 0.2,0.2 0.2,0.3 0.3,0.2 0.2,0.2 0.3,0.2 0.3,0.2 0.3,0.2 0.2,0.2 0.4,0.1 0.3,0.2 0.3,0.1 h 0.3 l 0.4,0.1 0.3,0.1 h 0.3 l 0.3,0.1 h 0.4 86.7 v 0 h 0.3 l 0.4,-0.1 h 0.3 l 0.3,-0.1 0.4,-0.1 h 0.3 l 0.3,-0.1 0.3,-0.2 0.3,-0.1 0.3,-0.2 0.3,-0.2 0.3,-0.2 0.3,-0.2 0.2,-0.2 0.3,-0.2 0.2,-0.3 0.2,-0.2 0.2,-0.3 0.2,-0.3 0.2,-0.3 0.2,-0.2 0.1,-0.4 0.1,-0.3 0.2,-0.3 v -0.3 l 0.1,-0.4 0.1,-0.3 v -0.3 l 0.1,-0.3 v -0.4 -25.9 0 -0.3 l -0.1,-0.4 v -0.3 l -0.1,-0.3 -0.1,-0.4 v -0.3 l -0.2,-0.3 -0.1,-0.3 -0.1,-0.3 -0.2,-0.3 -0.2,-0.3 -0.2,-0.3 -0.2,-0.2 -0.2,-0.3 -0.2,-0.3 -0.3,-0.2 -0.2,-0.2 -0.3,-0.2 -0.3,-0.2 -0.2,-0.2 -0.4,-0.2 -0.3,-0.1 -0.3,-0.1 -0.3,-0.1 -0.3,-0.1 -0.3,-0.1 -0.4,-0.1 h -0.3 l -0.3,-0.1 H 504 417.3 v 0 h -0.4 l -0.3,0.1 h -0.3 l -0.3,0.1 -0.4,0.1 -0.3,0.1 -0.3,0.1 -0.3,0.1 -0.3,0.1 -0.3,0.2 -0.3,0.2 -0.3,0.2 -0.3,0.2 -0.2,0.2 -0.3,0.2 -0.2,0.3 -0.2,0.2 -0.2,0.3 -0.2,0.3 -0.2,0.2 -0.2,0.4 -0.1,0.3 -0.1,0.3 -0.2,0.3 v 0.3 l -0.1,0.3 -0.1,0.4 v 0.3 l -0.1,0.3 v 0.4 z"/></g><g id="g128"><path id="path130" fill="none" stroke="#000" stroke-dasharray="none" stroke-linecap="butt" stroke-linejoin="round" stroke-miterlimit="10" stroke-opacity="1" stroke-width=".99" d="M 410.8,317.7 Z"/></g><g id="g132"><path id="path134" fill="none" stroke="#000" stroke-dasharray="none" stroke-linecap="butt" stroke-linejoin="round" stroke-miterlimit="10" stroke-opacity="1" stroke-width=".99" d="M 510.5,278.8 Z"/></g><g id="g136"><text id="text140" fill="#000" fill-opacity="1" fill-rule="nonzero" stroke="none" font-family="Carlito" font-size="18" font-variant="normal" font-weight="normal" transform="matrix(1,0,0,-1,426.4,291)" writing-mode="lr-tb" style="-inkscape-font-specification:Carlito"><tspan id="tspan138" x="0 9.198 15.192 24.678 32.274 41.256 48.258 55.332 59.418" y="0">Process 2</tspan></text></g><g id="g142"><g id="g158"><g id="g156" clip-path="url(#clipPath148)" opacity=".39"><g id="g152"><path id="path150" fill="none" stroke="#000" stroke-dasharray="none" stroke-linecap="butt" stroke-linejoin="round" stroke-miterlimit="10" stroke-opacity="1" stroke-width="2.009" d="m 321.3,305.6 h 85.1"/></g><path id="path154" fill="#000" fill-opacity="1" fill-rule="evenodd" stroke="none" d="m 412,305.6 -6,-3.1 v 6.1 z"/></g></g></g><g id="g160"><path id="path162" fill="none" stroke="#525e66" stroke-dasharray="none" stroke-linecap="butt" stroke-linejoin="round" stroke-miterlimit="10" stroke-opacity="1" stroke-width="2.009" d="m 321.3,307.2 h 85.1"/></g><path id="path164" fill="#525e66" fill-opacity="1" fill-rule="evenodd" stroke="none" d="m 412,307.2 -6,-3.1 v 6.1 z"/><g id="g166"><g id="g182"><g id="g180" clip-path="url(#clipPath172)" opacity=".39"><g id="g176"><path id="path174" fill="none" stroke="#000" stroke-dasharray="none" stroke-linecap="butt" stroke-linejoin="round" stroke-miterlimit="10" stroke-opacity="1" stroke-width="2.009" d="M 406.3,288.6 H 326.9"/></g><path id="path178" fill="#000" fill-opacity="1" fill-rule="evenodd" stroke="none" d="m 321.3,288.6 6,3 v -6.1 z"/></g></g></g><g id="g184"><path id="path186" fill="none" stroke="#525e66" stroke-dasharray="none" stroke-linecap="butt" stroke-linejoin="round" stroke-miterlimit="10" stroke-opacity="1" stroke-width="2.009" d="M 406.3,290.2 H 326.9"/></g><path id="path188" fill="#525e66" fill-opacity="1" fill-rule="evenodd" stroke="none" d="m 321.3,290.2 6,3 v -6.1 z"/><path id="path190" fill="#f2f2f2" fill-opacity="1" fill-rule="evenodd" stroke="none" d="m 597.9,311.2 v 0 0.4 l 0.1,0.3 v 0.3 l 0.1,0.3 0.1,0.4 0.1,0.3 0.1,0.3 0.1,0.3 0.1,0.4 0.2,0.2 0.2,0.3 0.2,0.3 0.2,0.3 0.2,0.2 0.2,0.3 0.3,0.2 0.2,0.2 0.3,0.2 0.3,0.2 0.3,0.2 0.3,0.2 0.3,0.1 0.3,0.2 0.3,0.1 h 0.3 l 0.4,0.1 0.3,0.1 h 0.3 l 0.4,0.1 h 0.3 86.7 v 0 h 0.4 l 0.3,-0.1 h 0.3 l 0.3,-0.1 0.4,-0.1 h 0.3 l 0.3,-0.1 0.4,-0.2 0.3,-0.1 0.2,-0.2 0.3,-0.2 0.3,-0.2 0.3,-0.2 0.3,-0.2 0.2,-0.2 0.2,-0.3 0.2,-0.2 0.2,-0.3 0.2,-0.3 0.2,-0.3 0.2,-0.2 0.1,-0.4 0.2,-0.3 0.1,-0.3 0.1,-0.3 v -0.4 l 0.1,-0.3 v -0.3 l 0.1,-0.3 v -0.4 -25.9 0 -0.3 l -0.1,-0.4 v -0.3 l -0.1,-0.3 v -0.4 l -0.1,-0.3 -0.1,-0.3 -0.2,-0.3 -0.1,-0.3 -0.2,-0.3 -0.2,-0.3 -0.1,-0.3 -0.3,-0.2 -0.2,-0.3 -0.2,-0.3 -0.2,-0.2 -0.3,-0.2 -0.3,-0.2 -0.2,-0.2 -0.3,-0.2 -0.3,-0.2 -0.3,-0.1 -0.4,-0.1 -0.3,-0.1 -0.3,-0.1 -0.3,-0.1 -0.3,-0.1 h -0.4 l -0.3,-0.1 h -0.4 -86.7 v 0 h -0.3 l -0.4,0.1 h -0.3 l -0.3,0.1 -0.4,0.1 -0.3,0.1 -0.3,0.1 -0.3,0.1 -0.3,0.1 -0.3,0.2 -0.3,0.2 -0.3,0.2 -0.3,0.2 -0.2,0.2 -0.3,0.2 -0.2,0.3 -0.2,0.2 -0.2,0.3 -0.2,0.3 -0.2,0.2 -0.2,0.4 -0.1,0.3 -0.1,0.3 -0.1,0.3 -0.1,0.3 -0.1,0.3 -0.1,0.4 v 0.3 l -0.1,0.3 v 0.4 z m 0,6.5 z m 99.7,-38.9 z"/><g id="g192"><path id="path194" fill="none" stroke="#000" stroke-dasharray="none" stroke-linecap="butt" stroke-linejoin="round" stroke-miterlimit="10" stroke-opacity="1" stroke-width=".99" d="m 597.9,311.2 v 0 0.4 l 0.1,0.3 v 0.3 l 0.1,0.3 0.1,0.4 0.1,0.3 0.1,0.3 0.1,0.3 0.1,0.4 0.2,0.2 0.2,0.3 0.2,0.3 0.2,0.3 0.2,0.2 0.2,0.3 0.3,0.2 0.2,0.2 0.3,0.2 0.3,0.2 0.3,0.2 0.3,0.2 0.3,0.1 0.3,0.2 0.3,0.1 h 0.3 l 0.4,0.1 0.3,0.1 h 0.3 l 0.4,0.1 h 0.3 86.7 v 0 h 0.4 l 0.3,-0.1 h 0.3 l 0.3,-0.1 0.4,-0.1 h 0.3 l 0.3,-0.1 0.4,-0.2 0.3,-0.1 0.2,-0.2 0.3,-0.2 0.3,-0.2 0.3,-0.2 0.3,-0.2 0.2,-0.2 0.2,-0.3 0.2,-0.2 0.2,-0.3 0.2,-0.3 0.2,-0.3 0.2,-0.2 0.1,-0.4 0.2,-0.3 0.1,-0.3 0.1,-0.3 v -0.4 l 0.1,-0.3 v -0.3 l 0.1,-0.3 v -0.4 -25.9 0 -0.3 l -0.1,-0.4 v -0.3 l -0.1,-0.3 v -0.4 l -0.1,-0.3 -0.1,-0.3 -0.2,-0.3 -0.1,-0.3 -0.2,-0.3 -0.2,-0.3 -0.1,-0.3 -0.3,-0.2 -0.2,-0.3 -0.2,-0.3 -0.2,-0.2 -0.3,-0.2 -0.3,-0.2 -0.2,-0.2 -0.3,-0.2 -0.3,-0.2 -0.3,-0.1 -0.4,-0.1 -0.3,-0.1 -0.3,-0.1 -0.3,-0.1 -0.3,-0.1 h -0.4 l -0.3,-0.1 h -0.4 -86.7 v 0 h -0.3 l -0.4,0.1 h -0.3 l -0.3,0.1 -0.4,0.1 -0.3,0.1 -0.3,0.1 -0.3,0.1 -0.3,0.1 -0.3,0.2 -0.3,0.2 -0.3,0.2 -0.3,0.2 -0.2,0.2 -0.3,0.2 -0.2,0.3 -0.2,0.2 -0.2,0.3 -0.2,0.3 -0.2,0.2 -0.2,0.4 -0.1,0.3 -0.1,0.3 -0.1,0.3 -0.1,0.3 -0.1,0.3 -0.1,0.4 v 0.3 l -0.1,0.3 v 0.4 z"/></g><g id="g196"><path id="path198" fill="none" stroke="#000" stroke-dasharray="none" stroke-linecap="butt" stroke-linejoin="round" stroke-miterlimit="10" stroke-opacity="1" stroke-width=".99" d="M 597.9,317.7 Z"/></g><g id="g200"><path id="path202" fill="none" stroke="#000" stroke-dasharray="none" stroke-linecap="butt" stroke-linejoin="round" stroke-miterlimit="10" stroke-opacity="1" stroke-width=".99" d="M 697.6,278.8 Z"/></g><g id="g204"><text id="text208" fill="#000" fill-opacity="1" fill-rule="nonzero" stroke="none" font-family="Carlito" font-size="18" font-variant="normal" font-weight="normal" transform="matrix(1,0,0,-1,613.5,291)" writing-mode="lr-tb" style="-inkscape-font-specification:Carlito"><tspan id="tspan206" x="0 9.198 15.3 24.696 32.292 41.274 48.348 55.35 59.436" y="0">Process 3</tspan></text></g><g id="g210"><g id="g226"><g id="g224" clip-path="url(#clipPath216)" opacity=".39"><g id="g220"><path id="path218" fill="none" stroke="#000" stroke-dasharray="none" stroke-linecap="butt" stroke-linejoin="round" stroke-miterlimit="10" stroke-opacity="1" stroke-width="2.009" d="m 508.4,305.6 h 85.1"/></g><path id="path222" fill="#000" fill-opacity="1" fill-rule="evenodd" stroke="none" d="m 599.1,305.6 -6,-3.1 v 6.1 z"/></g></g></g><g id="g228"><path id="path230" fill="none" stroke="#525e66" stroke-dasharray="none" stroke-linecap="butt" stroke-linejoin="round" stroke-miterlimit="10" stroke-opacity="1" stroke-width="2.009" d="m 508.4,307.2 h 85.1"/></g><path id="path232" fill="#525e66" fill-opacity="1" fill-rule="evenodd" stroke="none" d="m 599.1,307.2 -6,-3.1 v 6.1 z"/><g id="g234"><g id="g250"><g id="g248" clip-path="url(#clipPath240)" opacity=".39"><g id="g244"><path id="path242" fill="none" stroke="#000" stroke-dasharray="none" stroke-linecap="butt" stroke-linejoin="round" stroke-miterlimit="10" stroke-opacity="1" stroke-width="2.009" d="M 593.5,288.6 H 514"/></g><path id="path246" fill="#000" fill-opacity="1" fill-rule="evenodd" stroke="none" d="m 508.4,288.6 6,3 v -6.1 z"/></g></g></g><g id="g252"><path id="path254" fill="none" stroke="#525e66" stroke-dasharray="none" stroke-linecap="butt" stroke-linejoin="round" stroke-miterlimit="10" stroke-opacity="1" stroke-width="2.009" d="M 593.5,290.2 H 514"/></g><path id="path256" fill="#525e66" fill-opacity="1" fill-rule="evenodd" stroke="none" d="m 508.4,290.2 6,3 v -6.1 z"/><path id="path258" fill="#f2f2f2" fill-opacity="1" fill-rule="evenodd" stroke="none" d="m 44.7,197.8 v 0 0.3 0.4 l 0.1,0.3 v 0.3 l 0.1,0.4 0.1,0.3 0.1,0.3 0.1,0.3 0.2,0.3 0.2,0.3 0.1,0.3 0.2,0.3 0.2,0.3 0.2,0.2 0.3,0.3 0.2,0.2 0.3,0.2 0.2,0.2 0.3,0.2 0.3,0.2 0.3,0.2 0.3,0.1 0.3,0.1 0.4,0.1 0.3,0.1 0.3,0.1 0.3,0.1 h 0.4 l 0.3,0.1 h 0.3 86.7 v 0 h 0.4 l 0.3,-0.1 h 0.4 l 0.3,-0.1 0.3,-0.1 0.3,-0.1 0.4,-0.1 0.3,-0.1 0.3,-0.1 0.3,-0.2 0.3,-0.2 0.2,-0.2 0.3,-0.2 0.3,-0.2 0.2,-0.2 0.2,-0.3 0.3,-0.2 0.2,-0.3 0.2,-0.3 0.1,-0.3 0.2,-0.3 0.1,-0.3 0.2,-0.3 0.1,-0.3 0.1,-0.3 0.1,-0.4 v -0.3 l 0.1,-0.3 v -0.4 -0.3 -25.9 0 -0.4 -0.3 l -0.1,-0.3 v -0.3 l -0.1,-0.4 -0.1,-0.3 -0.1,-0.3 -0.2,-0.3 -0.1,-0.3 -0.1,-0.3 -0.2,-0.3 -0.2,-0.3 -0.2,-0.3 -0.2,-0.2 -0.3,-0.3 -0.2,-0.2 -0.3,-0.2 -0.3,-0.2 -0.2,-0.2 -0.3,-0.2 -0.3,-0.2 -0.3,-0.1 -0.3,-0.1 -0.3,-0.2 h -0.4 l -0.3,-0.1 -0.3,-0.1 h -0.3 l -0.4,-0.1 h -0.3 -86.8 v 0 h -0.3 l -0.3,0.1 h -0.4 l -0.3,0.1 -0.3,0.1 h -0.3 l -0.4,0.2 -0.3,0.1 -0.3,0.1 -0.3,0.2 -0.3,0.2 -0.3,0.1 -0.2,0.3 -0.3,0.2 -0.2,0.2 -0.3,0.3 -0.2,0.2 -0.2,0.3 -0.2,0.2 -0.1,0.3 -0.2,0.3 -0.2,0.4 -0.1,0.3 -0.1,0.3 -0.1,0.3 -0.1,0.3 v 0.3 l -0.1,0.4 v 0.3 0.4 z m 0,6.5 z m 99.6,-38.9 z"/><g id="g260"><path id="path262" fill="none" stroke="#000" stroke-dasharray="none" stroke-linecap="butt" stroke-linejoin="round" stroke-miterlimit="10" stroke-opacity="1" stroke-width=".736" d="m 44.7,197.8 v 0 0.3 0.4 l 0.1,0.3 v 0.3 l 0.1,0.4 0.1,0.3 0.1,0.3 0.1,0.3 0.2,0.3 0.2,0.3 0.1,0.3 0.2,0.3 0.2,0.3 0.2,0.2 0.3,0.3 0.2,0.2 0.3,0.2 0.2,0.2 0.3,0.2 0.3,0.2 0.3,0.2 0.3,0.1 0.3,0.1 0.4,0.1 0.3,0.1 0.3,0.1 0.3,0.1 h 0.4 l 0.3,0.1 h 0.3 86.7 v 0 h 0.4 l 0.3,-0.1 h 0.4 l 0.3,-0.1 0.3,-0.1 0.3,-0.1 0.4,-0.1 0.3,-0.1 0.3,-0.1 0.3,-0.2 0.3,-0.2 0.2,-0.2 0.3,-0.2 0.3,-0.2 0.2,-0.2 0.2,-0.3 0.3,-0.2 0.2,-0.3 0.2,-0.3 0.1,-0.3 0.2,-0.3 0.1,-0.3 0.2,-0.3 0.1,-0.3 0.1,-0.3 0.1,-0.4 v -0.3 l 0.1,-0.3 v -0.4 -0.3 -25.9 0 -0.4 -0.3 l -0.1,-0.3 v -0.3 l -0.1,-0.4 -0.1,-0.3 -0.1,-0.3 -0.2,-0.3 -0.1,-0.3 -0.1,-0.3 -0.2,-0.3 -0.2,-0.3 -0.2,-0.3 -0.2,-0.2 -0.3,-0.3 -0.2,-0.2 -0.3,-0.2 -0.3,-0.2 -0.2,-0.2 -0.3,-0.2 -0.3,-0.2 -0.3,-0.1 -0.3,-0.1 -0.3,-0.2 h -0.4 l -0.3,-0.1 -0.3,-0.1 h -0.3 l -0.4,-0.1 h -0.3 -86.8 v 0 h -0.3 l -0.3,0.1 h -0.4 l -0.3,0.1 -0.3,0.1 h -0.3 l -0.4,0.2 -0.3,0.1 -0.3,0.1 -0.3,0.2 -0.3,0.2 -0.3,0.1 -0.2,0.3 -0.3,0.2 -0.2,0.2 -0.3,0.3 -0.2,0.2 -0.2,0.3 -0.2,0.2 -0.1,0.3 -0.2,0.3 -0.2,0.4 -0.1,0.3 -0.1,0.3 -0.1,0.3 -0.1,0.3 v 0.3 l -0.1,0.4 v 0.3 0.4 z"/></g><g id="g264"><path id="path266" fill="none" stroke="#000" stroke-dasharray="none" stroke-linecap="butt" stroke-linejoin="round" stroke-miterlimit="10" stroke-opacity="1" stroke-width=".736" d="M 44.7,204.3 Z"/></g><g id="g268"><path id="path270" fill="none" stroke="#000" stroke-dasharray="none" stroke-linecap="butt" stroke-linejoin="round" stroke-miterlimit="10" stroke-opacity="1" stroke-width=".736" d="M 144.3,165.4 Z"/></g><g id="g272"><text id="text276" fill="#000" fill-opacity="1" fill-rule="nonzero" stroke="none" font-family="Carlito" font-size="18" font-variant="normal" font-weight="normal" transform="matrix(1,0,0,-1,60.2,177.6)" writing-mode="lr-tb" style="-inkscape-font-specification:Carlito"><tspan id="tspan274" x="0 9.288 15.282 24.768 32.274 41.256 48.33 55.404 59.49" y="0">Process 0</tspan></text></g><path id="path278" fill="#f2f2f2" fill-opacity="1" fill-rule="evenodd" stroke="none" d="m 218,197.8 v 0 0.3 l 0.1,0.4 v 0.3 l 0.1,0.3 0.1,0.4 0.1,0.3 0.1,0.3 0.1,0.3 0.1,0.3 0.2,0.3 0.2,0.3 0.2,0.3 0.2,0.3 0.2,0.2 0.2,0.3 0.3,0.2 0.3,0.2 0.2,0.2 0.3,0.2 0.3,0.2 0.3,0.2 0.3,0.1 0.3,0.1 0.3,0.1 0.3,0.1 0.4,0.1 0.3,0.1 h 0.3 l 0.4,0.1 h 0.3 86.7 v 0 h 0.4 l 0.3,-0.1 h 0.3 l 0.3,-0.1 0.4,-0.1 0.3,-0.1 0.3,-0.1 0.4,-0.1 0.3,-0.1 0.2,-0.2 0.3,-0.2 0.3,-0.2 0.3,-0.2 0.3,-0.2 0.2,-0.2 0.2,-0.3 0.2,-0.2 0.2,-0.3 0.2,-0.3 0.2,-0.3 0.2,-0.3 0.1,-0.3 0.2,-0.3 0.1,-0.3 0.1,-0.3 v -0.4 l 0.1,-0.3 0.1,-0.3 v -0.4 -0.3 -25.9 0 -0.4 -0.3 l -0.1,-0.3 -0.1,-0.3 v -0.4 l -0.1,-0.3 -0.1,-0.3 -0.2,-0.3 -0.1,-0.3 -0.2,-0.3 -0.2,-0.3 -0.1,-0.3 -0.3,-0.3 -0.2,-0.2 -0.2,-0.3 -0.2,-0.2 -0.3,-0.2 -0.3,-0.2 -0.2,-0.2 -0.3,-0.2 -0.3,-0.2 -0.3,-0.1 -0.4,-0.1 -0.3,-0.2 h -0.3 l -0.3,-0.1 -0.3,-0.1 h -0.4 l -0.3,-0.1 h -0.4 -86.7 v 0 h -0.3 l -0.4,0.1 h -0.3 l -0.3,0.1 -0.4,0.1 h -0.3 l -0.3,0.2 -0.3,0.1 -0.3,0.1 -0.3,0.2 -0.3,0.2 -0.3,0.1 -0.2,0.3 -0.3,0.2 -0.3,0.2 -0.2,0.3 -0.2,0.2 -0.2,0.3 -0.2,0.2 -0.2,0.3 -0.2,0.3 -0.1,0.4 -0.1,0.3 -0.1,0.3 -0.1,0.3 -0.1,0.3 -0.1,0.3 v 0.4 l -0.1,0.3 v 0.4 z m 0,6.5 z m 99.7,-38.9 z"/><g id="g280"><path id="path282" fill="none" stroke="#000" stroke-dasharray="none" stroke-linecap="butt" stroke-linejoin="round" stroke-miterlimit="10" stroke-opacity="1" stroke-width=".99" d="m 218,197.8 v 0 0.3 l 0.1,0.4 v 0.3 l 0.1,0.3 0.1,0.4 0.1,0.3 0.1,0.3 0.1,0.3 0.1,0.3 0.2,0.3 0.2,0.3 0.2,0.3 0.2,0.3 0.2,0.2 0.2,0.3 0.3,0.2 0.3,0.2 0.2,0.2 0.3,0.2 0.3,0.2 0.3,0.2 0.3,0.1 0.3,0.1 0.3,0.1 0.3,0.1 0.4,0.1 0.3,0.1 h 0.3 l 0.4,0.1 h 0.3 86.7 v 0 h 0.4 l 0.3,-0.1 h 0.3 l 0.3,-0.1 0.4,-0.1 0.3,-0.1 0.3,-0.1 0.4,-0.1 0.3,-0.1 0.2,-0.2 0.3,-0.2 0.3,-0.2 0.3,-0.2 0.3,-0.2 0.2,-0.2 0.2,-0.3 0.2,-0.2 0.2,-0.3 0.2,-0.3 0.2,-0.3 0.2,-0.3 0.1,-0.3 0.2,-0.3 0.1,-0.3 0.1,-0.3 v -0.4 l 0.1,-0.3 0.1,-0.3 v -0.4 -0.3 -25.9 0 -0.4 -0.3 l -0.1,-0.3 -0.1,-0.3 v -0.4 l -0.1,-0.3 -0.1,-0.3 -0.2,-0.3 -0.1,-0.3 -0.2,-0.3 -0.2,-0.3 -0.1,-0.3 -0.3,-0.3 -0.2,-0.2 -0.2,-0.3 -0.2,-0.2 -0.3,-0.2 -0.3,-0.2 -0.2,-0.2 -0.3,-0.2 -0.3,-0.2 -0.3,-0.1 -0.4,-0.1 -0.3,-0.2 h -0.3 l -0.3,-0.1 -0.3,-0.1 h -0.4 l -0.3,-0.1 h -0.4 -86.7 v 0 h -0.3 l -0.4,0.1 h -0.3 l -0.3,0.1 -0.4,0.1 h -0.3 l -0.3,0.2 -0.3,0.1 -0.3,0.1 -0.3,0.2 -0.3,0.2 -0.3,0.1 -0.2,0.3 -0.3,0.2 -0.3,0.2 -0.2,0.3 -0.2,0.2 -0.2,0.3 -0.2,0.2 -0.2,0.3 -0.2,0.3 -0.1,0.4 -0.1,0.3 -0.1,0.3 -0.1,0.3 -0.1,0.3 -0.1,0.3 v 0.4 l -0.1,0.3 v 0.4 z"/></g><g id="g284"><path id="path286" fill="none" stroke="#000" stroke-dasharray="none" stroke-linecap="butt" stroke-linejoin="round" stroke-miterlimit="10" stroke-opacity="1" stroke-width=".99" d="M 218,204.3 Z"/></g><g id="g288"><path id="path290" fill="none" stroke="#000" stroke-dasharray="none" stroke-linecap="butt" stroke-linejoin="round" stroke-miterlimit="10" stroke-opacity="1" stroke-width=".99" d="M 317.7,165.4 Z"/></g><g id="g292"><text id="text296" fill="#000" fill-opacity="1" fill-rule="nonzero" stroke="none" font-family="Carlito" font-size="18" font-variant="normal" font-weight="normal" transform="matrix(1,0,0,-1,233.6,177.6)" writing-mode="lr-tb" style="-inkscape-font-specification:Carlito"><tspan id="tspan294" x="0 9.198 15.3 24.696 32.292 41.274 48.348 55.35 59.436" y="0">Process 1</tspan></text></g><path id="path298" fill="#f2f2f2" fill-opacity="1" fill-rule="evenodd" stroke="none" d="m 410.8,197.9 v 0 0.3 l 0.1,0.3 v 0.4 l 0.1,0.3 0.1,0.3 v 0.3 l 0.2,0.4 0.1,0.3 0.1,0.3 0.2,0.3 0.2,0.3 0.2,0.3 0.2,0.2 0.2,0.3 0.2,0.2 0.3,0.2 0.2,0.3 0.3,0.2 0.3,0.2 0.3,0.1 0.2,0.2 0.4,0.2 0.3,0.1 0.3,0.1 0.3,0.1 0.4,0.1 h 0.3 l 0.3,0.1 h 0.3 0.4 86.7 v 0 h 0.3 0.4 l 0.3,-0.1 h 0.3 l 0.4,-0.1 0.3,-0.1 0.3,-0.1 0.3,-0.1 0.3,-0.2 0.3,-0.2 0.3,-0.1 0.3,-0.2 0.3,-0.2 0.2,-0.3 0.3,-0.2 0.2,-0.2 0.2,-0.3 0.2,-0.2 0.2,-0.3 0.2,-0.3 0.2,-0.3 0.1,-0.3 0.1,-0.3 0.2,-0.4 v -0.3 l 0.1,-0.3 0.1,-0.3 v -0.4 l 0.1,-0.3 v -0.3 -26 0 -0.3 l -0.1,-0.3 v -0.4 l -0.1,-0.3 -0.1,-0.3 V 170 l -0.2,-0.3 -0.1,-0.4 -0.1,-0.3 -0.2,-0.3 -0.2,-0.3 -0.2,-0.3 -0.2,-0.2 -0.2,-0.3 -0.2,-0.2 -0.3,-0.2 -0.2,-0.3 -0.3,-0.2 -0.3,-0.2 -0.2,-0.1 -0.4,-0.2 -0.3,-0.1 -0.3,-0.2 -0.3,-0.1 -0.3,-0.1 -0.3,-0.1 H 505 l -0.3,-0.1 h -0.3 -0.4 -86.7 v 0 h -0.4 -0.3 l -0.3,0.1 H 416 l -0.4,0.1 -0.3,0.1 -0.3,0.1 -0.3,0.2 -0.3,0.1 -0.3,0.1 -0.3,0.2 -0.3,0.2 -0.3,0.2 -0.2,0.2 -0.3,0.3 -0.2,0.2 -0.2,0.3 -0.2,0.2 -0.2,0.3 -0.2,0.3 -0.2,0.3 -0.1,0.3 -0.1,0.3 -0.2,0.3 v 0.3 l -0.1,0.4 -0.1,0.3 v 0.3 l -0.1,0.4 v 0.3 z m 0,6.4 z m 99.7,-38.8 z"/><g id="g300"><path id="path302" fill="none" stroke="#000" stroke-dasharray="none" stroke-linecap="butt" stroke-linejoin="round" stroke-miterlimit="10" stroke-opacity="1" stroke-width=".99" d="m 410.8,197.9 v 0 0.3 l 0.1,0.3 v 0.4 l 0.1,0.3 0.1,0.3 v 0.3 l 0.2,0.4 0.1,0.3 0.1,0.3 0.2,0.3 0.2,0.3 0.2,0.3 0.2,0.2 0.2,0.3 0.2,0.2 0.3,0.2 0.2,0.3 0.3,0.2 0.3,0.2 0.3,0.1 0.2,0.2 0.4,0.2 0.3,0.1 0.3,0.1 0.3,0.1 0.4,0.1 h 0.3 l 0.3,0.1 h 0.3 0.4 86.7 v 0 h 0.3 0.4 l 0.3,-0.1 h 0.3 l 0.4,-0.1 0.3,-0.1 0.3,-0.1 0.3,-0.1 0.3,-0.2 0.3,-0.2 0.3,-0.1 0.3,-0.2 0.3,-0.2 0.2,-0.3 0.3,-0.2 0.2,-0.2 0.2,-0.3 0.2,-0.2 0.2,-0.3 0.2,-0.3 0.2,-0.3 0.1,-0.3 0.1,-0.3 0.2,-0.4 v -0.3 l 0.1,-0.3 0.1,-0.3 v -0.4 l 0.1,-0.3 v -0.3 -26 0 -0.3 l -0.1,-0.3 v -0.4 l -0.1,-0.3 -0.1,-0.3 V 170 l -0.2,-0.3 -0.1,-0.4 -0.1,-0.3 -0.2,-0.3 -0.2,-0.3 -0.2,-0.3 -0.2,-0.2 -0.2,-0.3 -0.2,-0.2 -0.3,-0.2 -0.2,-0.3 -0.3,-0.2 -0.3,-0.2 -0.2,-0.1 -0.4,-0.2 -0.3,-0.1 -0.3,-0.2 -0.3,-0.1 -0.3,-0.1 -0.3,-0.1 H 505 l -0.3,-0.1 h -0.3 -0.4 -86.7 v 0 h -0.4 -0.3 l -0.3,0.1 H 416 l -0.4,0.1 -0.3,0.1 -0.3,0.1 -0.3,0.2 -0.3,0.1 -0.3,0.1 -0.3,0.2 -0.3,0.2 -0.3,0.2 -0.2,0.2 -0.3,0.3 -0.2,0.2 -0.2,0.3 -0.2,0.2 -0.2,0.3 -0.2,0.3 -0.2,0.3 -0.1,0.3 -0.1,0.3 -0.2,0.3 v 0.3 l -0.1,0.4 -0.1,0.3 v 0.3 l -0.1,0.4 v 0.3 z"/></g><g id="g304"><path id="path306" fill="none" stroke="#000" stroke-dasharray="none" stroke-linecap="butt" stroke-linejoin="round" stroke-miterlimit="10" stroke-opacity="1" stroke-width=".99" d="M 410.8,204.3 Z"/></g><g id="g308"><path id="path310" fill="none" stroke="#000" stroke-dasharray="none" stroke-linecap="butt" stroke-linejoin="round" stroke-miterlimit="10" stroke-opacity="1" stroke-width=".99" d="M 510.5,165.5 Z"/></g><g id="g312"><text id="text316" fill="#000" fill-opacity="1" fill-rule="nonzero" stroke="none" font-family="Carlito" font-size="18" font-variant="normal" font-weight="normal" transform="matrix(1,0,0,-1,426.4,177.6)" writing-mode="lr-tb" style="-inkscape-font-specification:Carlito"><tspan id="tspan314" x="0 9.198 15.192 24.678 32.274 41.256 48.258 55.332 59.418" y="0">Process 2</tspan></text></g><path id="path318" fill="#f2f2f2" fill-opacity="1" fill-rule="evenodd" stroke="none" d="m 599.8,197.9 v 0 0.3 l 0.1,0.3 v 0.4 l 0.1,0.3 0.1,0.3 0.1,0.3 0.1,0.4 0.1,0.3 0.1,0.3 0.2,0.3 0.2,0.3 0.2,0.3 0.2,0.2 0.2,0.3 0.2,0.2 0.3,0.2 0.2,0.3 0.3,0.2 0.3,0.2 0.3,0.1 0.3,0.2 0.3,0.2 0.3,0.1 0.3,0.1 0.3,0.1 0.4,0.1 h 0.3 l 0.3,0.1 h 0.4 0.3 86.7 v 0 h 0.4 0.3 l 0.3,-0.1 h 0.3 l 0.4,-0.1 0.3,-0.1 0.3,-0.1 0.4,-0.1 0.3,-0.2 0.2,-0.2 0.3,-0.1 0.3,-0.2 0.3,-0.2 0.3,-0.3 0.2,-0.2 0.2,-0.2 0.2,-0.3 0.2,-0.2 0.2,-0.3 0.2,-0.3 0.2,-0.3 0.1,-0.3 0.2,-0.3 0.1,-0.4 0.1,-0.3 v -0.3 l 0.1,-0.3 v -0.4 l 0.1,-0.3 v -0.3 -26 0 -0.3 l -0.1,-0.3 v -0.4 l -0.1,-0.3 v -0.3 l -0.1,-0.3 -0.1,-0.3 -0.2,-0.4 -0.1,-0.3 -0.2,-0.3 -0.2,-0.3 -0.1,-0.3 -0.3,-0.2 -0.2,-0.3 -0.2,-0.2 -0.2,-0.2 -0.3,-0.3 -0.3,-0.2 -0.2,-0.2 -0.3,-0.1 -0.3,-0.2 -0.3,-0.1 -0.4,-0.2 -0.3,-0.1 -0.3,-0.1 -0.3,-0.1 h -0.3 l -0.4,-0.1 h -0.3 -0.4 -86.7 v 0 h -0.3 -0.4 l -0.3,0.1 H 605 l -0.4,0.1 -0.3,0.1 -0.3,0.1 -0.3,0.2 -0.3,0.1 -0.3,0.1 -0.3,0.2 -0.3,0.2 -0.3,0.2 -0.2,0.2 -0.3,0.3 -0.2,0.2 -0.2,0.3 -0.2,0.2 -0.2,0.3 -0.2,0.3 -0.2,0.3 -0.1,0.3 -0.1,0.3 -0.1,0.3 -0.1,0.3 -0.1,0.4 -0.1,0.3 v 0.3 l -0.1,0.4 v 0.3 z m 0,6.4 z m 99.7,-38.8 z"/><g id="g320"><path id="path322" fill="none" stroke="#000" stroke-dasharray="none" stroke-linecap="butt" stroke-linejoin="round" stroke-miterlimit="10" stroke-opacity="1" stroke-width=".99" d="m 599.8,197.9 v 0 0.3 l 0.1,0.3 v 0.4 l 0.1,0.3 0.1,0.3 0.1,0.3 0.1,0.4 0.1,0.3 0.1,0.3 0.2,0.3 0.2,0.3 0.2,0.3 0.2,0.2 0.2,0.3 0.2,0.2 0.3,0.2 0.2,0.3 0.3,0.2 0.3,0.2 0.3,0.1 0.3,0.2 0.3,0.2 0.3,0.1 0.3,0.1 0.3,0.1 0.4,0.1 h 0.3 l 0.3,0.1 h 0.4 0.3 86.7 v 0 h 0.4 0.3 l 0.3,-0.1 h 0.3 l 0.4,-0.1 0.3,-0.1 0.3,-0.1 0.4,-0.1 0.3,-0.2 0.2,-0.2 0.3,-0.1 0.3,-0.2 0.3,-0.2 0.3,-0.3 0.2,-0.2 0.2,-0.2 0.2,-0.3 0.2,-0.2 0.2,-0.3 0.2,-0.3 0.2,-0.3 0.1,-0.3 0.2,-0.3 0.1,-0.4 0.1,-0.3 v -0.3 l 0.1,-0.3 v -0.4 l 0.1,-0.3 v -0.3 -26 0 -0.3 l -0.1,-0.3 v -0.4 l -0.1,-0.3 v -0.3 l -0.1,-0.3 -0.1,-0.3 -0.2,-0.4 -0.1,-0.3 -0.2,-0.3 -0.2,-0.3 -0.1,-0.3 -0.3,-0.2 -0.2,-0.3 -0.2,-0.2 -0.2,-0.2 -0.3,-0.3 -0.3,-0.2 -0.2,-0.2 -0.3,-0.1 -0.3,-0.2 -0.3,-0.1 -0.4,-0.2 -0.3,-0.1 -0.3,-0.1 -0.3,-0.1 h -0.3 l -0.4,-0.1 h -0.3 -0.4 -86.7 v 0 h -0.3 -0.4 l -0.3,0.1 H 605 l -0.4,0.1 -0.3,0.1 -0.3,0.1 -0.3,0.2 -0.3,0.1 -0.3,0.1 -0.3,0.2 -0.3,0.2 -0.3,0.2 -0.2,0.2 -0.3,0.3 -0.2,0.2 -0.2,0.3 -0.2,0.2 -0.2,0.3 -0.2,0.3 -0.2,0.3 -0.1,0.3 -0.1,0.3 -0.1,0.3 -0.1,0.3 -0.1,0.4 -0.1,0.3 v 0.3 l -0.1,0.4 v 0.3 z"/></g><g id="g324"><path id="path326" fill="none" stroke="#000" stroke-dasharray="none" stroke-linecap="butt" stroke-linejoin="round" stroke-miterlimit="10" stroke-opacity="1" stroke-width=".99" d="M 599.8,204.3 Z"/></g><g id="g328"><path id="path330" fill="none" stroke="#000" stroke-dasharray="none" stroke-linecap="butt" stroke-linejoin="round" stroke-miterlimit="10" stroke-opacity="1" stroke-width=".99" d="M 699.5,165.5 Z"/></g><g id="g332"><text id="text336" fill="#000" fill-opacity="1" fill-rule="nonzero" stroke="none" font-family="Carlito" font-size="18" font-variant="normal" font-weight="normal" transform="matrix(1,0,0,-1,615.4,177.6)" writing-mode="lr-tb" style="-inkscape-font-specification:Carlito"><tspan id="tspan334" x="0 9.198 15.3 24.696 32.292 41.274 48.348 55.35 59.436" y="0">Process 3</tspan></text></g><g id="g338"><g id="g354"><g id="g352" clip-path="url(#clipPath344)" opacity=".39"><g id="g348"><path id="path346" fill="none" stroke="#000" stroke-dasharray="none" stroke-linecap="butt" stroke-linejoin="round" stroke-miterlimit="10" stroke-opacity="1" stroke-width="2.009" d="M 649.7,163.9 V 142.6 H 94.5 v 15.6"/></g><path id="path350" fill="#000" fill-opacity="1" fill-rule="evenodd" stroke="none" d="m 94.5,163.8 3.1,-6 h -6.1 z"/></g></g></g><g id="g356"><path id="path358" fill="none" stroke="#525e66" stroke-dasharray="none" stroke-linecap="butt" stroke-linejoin="round" stroke-miterlimit="10" stroke-opacity="1" stroke-width="2.009" d="M 649.7,165.5 V 144.2 H 94.5 v 15.6"/></g><path id="path360" fill="#525e66" fill-opacity="1" fill-rule="evenodd" stroke="none" d="m 94.5,165.4 3.1,-6 h -6.1 z"/><g id="g362"><g id="g378"><g id="g376" clip-path="url(#clipPath368)" opacity=".39"><g id="g372"><path id="path370" fill="none" stroke="#000" stroke-dasharray="none" stroke-linecap="butt" stroke-linejoin="round" stroke-miterlimit="10" stroke-opacity="1" stroke-width="2.009" d="m 144.4,183.2 h 37.8 v 0.1 h 32.1"/></g><path id="path374" fill="#000" fill-opacity="1" fill-rule="evenodd" stroke="none" d="m 220,183.3 -6.1,-3 v 6 z"/></g></g></g><g id="g380"><path id="path382" fill="none" stroke="#525e66" stroke-dasharray="none" stroke-linecap="butt" stroke-linejoin="round" stroke-miterlimit="10" stroke-opacity="1" stroke-width="2.009" d="m 144.4,184.8 h 37.8 v 0.1 h 32.1"/></g><path id="path384" fill="#525e66" fill-opacity="1" fill-rule="evenodd" stroke="none" d="m 220,184.9 -6.1,-3 v 6 z"/><g id="g386"><g id="g402"><g id="g400" clip-path="url(#clipPath392)" opacity=".39"><g id="g396"><path id="path394" fill="none" stroke="#000" stroke-dasharray="none" stroke-linecap="butt" stroke-linejoin="round" stroke-miterlimit="10" stroke-opacity="1" stroke-width="2.009" d="m 317.7,183.3 h 46.6 v 0 h 40.9"/></g><path id="path398" fill="#000" fill-opacity="1" fill-rule="evenodd" stroke="none" d="m 410.8,183.3 -6,-3 v 6 z"/></g></g></g><g id="g404"><path id="path406" fill="none" stroke="#525e66" stroke-dasharray="none" stroke-linecap="butt" stroke-linejoin="round" stroke-miterlimit="10" stroke-opacity="1" stroke-width="2.009" d="m 317.7,184.9 h 46.6 v 0 h 40.9"/></g><path id="path408" fill="#525e66" fill-opacity="1" fill-rule="evenodd" stroke="none" d="m 410.8,184.9 -6,-3 v 6 z"/><g id="g410"><g id="g426"><g id="g424" clip-path="url(#clipPath416)" opacity=".39"><g id="g420"><path id="path418" fill="none" stroke="#000" stroke-dasharray="none" stroke-linecap="butt" stroke-linejoin="round" stroke-miterlimit="10" stroke-opacity="1" stroke-width="2.009" d="m 510.5,183.3 h 44.7 v 0 h 39"/></g><path id="path422" fill="#000" fill-opacity="1" fill-rule="evenodd" stroke="none" d="m 599.9,183.3 -6.1,-3.1 v 6.1 z"/></g></g></g><g id="g428"><path id="path430" fill="none" stroke="#525e66" stroke-dasharray="none" stroke-linecap="butt" stroke-linejoin="round" stroke-miterlimit="10" stroke-opacity="1" stroke-width="2.009" d="m 510.5,184.9 h 44.7 v -0.1 h 39"/></g><path id="path432" fill="#525e66" fill-opacity="1" fill-rule="evenodd" stroke="none" d="m 599.9,184.8 -6.1,-3 v 6 z"/></g></g></g></svg>