<svg xmlns="http://www.w3.org/2000/svg" xmlns:svg="http://www.w3.org/2000/svg" id="svg2" width="510.833" height="249.237" version="1.1" viewBox="0 0 510.833 249.237" xml:space="preserve"><metadata id="metadata8"/><defs id="defs6"><clipPath id="clipPath18" clipPathUnits="userSpaceOnUse"><path id="path16" d="M 0,-0.2 H 793.6 V 595 H 0 Z" clip-rule="evenodd"/></clipPath></defs><g id="g10" transform="matrix(1.3333333,0,0,-1.3333333,-227.85474,612.83092)"><g id="g12"><g id="g14" clip-path="url(#clipPath18)"><path id="path64" fill="#b3b6b8" fill-opacity="1" fill-rule="evenodd" stroke="#fff" stroke-opacity="1" d="m 281.8,339.4 10.9,-8.5 3.9,4.9 1.2,-20.8 -20.5,-3.8 3.8,4.9 -10.8,8.6 z m 3.9,4.9 z m 2.4,-41.7 z"/><path id="path66" fill="#b3b6b8" fill-opacity="1" fill-rule="evenodd" stroke="#fff" stroke-dasharray="none" stroke-miterlimit="4" stroke-opacity="1" stroke-width="1" d="m 411.9,328.1 11.9,8.1 -3.5,5.1 20.7,-4.8 -3.1,-21 -3.5,5.1 -11.9,-8.1 z m -3.5,5.1 z m 41.4,-9.6 z"/><path id="path26" fill="#525e66" fill-opacity="1" fill-rule="evenodd" stroke="#fff" stroke-dasharray="none" stroke-miterlimit="4" stroke-opacity="1" stroke-width="1" d="m 317.29999,341.8 v 0 0.4 0.4 0.4 l 0.1,0.4 0.1,0.4 0.1,0.3 0.2,0.4 0.1,0.4 0.2,0.3 0.2,0.4 0.2,0.3 0.2,0.3 0.2,0.3 0.3,0.4 0.3,0.2 0.2,0.3 0.4,0.3 0.3,0.2 0.3,0.2 0.3,0.2 0.4,0.2 0.3,0.2 0.4,0.1 0.4,0.2 0.3,0.1 0.4,0.1 0.4,0.1 h 0.4 0.4 0.4 69.9 v 0 h 0.4 0.4 0.4 l 0.4,-0.1 0.4,-0.1 0.3,-0.1 0.4,-0.2 0.4,-0.1 0.4,-0.2 0.3,-0.2 0.3,-0.2 0.3,-0.2 0.4,-0.2 0.3,-0.3 0.3,-0.3 0.2,-0.2 0.3,-0.4 0.2,-0.3 0.2,-0.3 0.2,-0.3 0.2,-0.4 0.2,-0.3 0.2,-0.4 0.1,-0.4 0.1,-0.3 0.1,-0.4 0.1,-0.4 v -0.4 l 0.1,-0.4 v -0.4 -60.5 0 -0.4 l -0.1,-0.4 v -0.4 l -0.1,-0.4 -0.1,-0.4 -0.1,-0.4 -0.1,-0.3 -0.2,-0.4 -0.2,-0.3 -0.1,-0.4 -0.3,-0.3 -0.2,-0.4 -0.2,-0.3 -0.3,-0.3 -0.2,-0.3 -0.3,-0.2 -0.3,-0.3 -0.3,-0.2 -0.4,-0.3 -0.3,-0.2 -0.3,-0.2 -0.4,-0.1 -0.4,-0.2 -0.3,-0.1 -0.4,-0.1 -0.4,-0.1 -0.4,-0.1 h -0.4 l -0.4,-0.1 h -0.3 -70 v 0 h -0.4 -0.4 l -0.4,0.1 -0.4,0.1 -0.4,0.1 -0.3,0.1 -0.4,0.1 -0.4,0.2 -0.3,0.1 -0.4,0.2 -0.3,0.2 -0.3,0.3 -0.3,0.2 -0.4,0.2 -0.2,0.3 -0.3,0.3 -0.2,0.3 -0.3,0.3 -0.2,0.4 -0.2,0.3 -0.2,0.3 -0.2,0.4 -0.1,0.3 -0.2,0.4 -0.1,0.4 -0.1,0.4 -0.1,0.3 v 0.4 0.4 0.4 z m 0,7.5 z m 85,-75.6 z"/><path id="path34" fill="none" stroke="#fff" stroke-dasharray="none" stroke-linecap="butt" stroke-linejoin="round" stroke-miterlimit="10" stroke-opacity="1" stroke-width="2.009" d="M 317.29999,349.3 Z"/><path id="path38" fill="none" stroke="#fff" stroke-dasharray="none" stroke-linecap="butt" stroke-linejoin="round" stroke-miterlimit="10" stroke-opacity="1" stroke-width="2.009" d="M 402.29999,273.7 Z"/><text id="text44" x="332.1" y="-323.7" fill="#fff" fill-opacity="1" fill-rule="nonzero" stroke="none" font-family="Carlito" font-size="18" font-variant="normal" font-weight="normal" transform="scale(1,-1)" writing-mode="lr-tb" style="-inkscape-font-specification:Carlito"><tspan id="tspan42" x="332.1 341.298 347.292 356.778 364.374 373.356 380.358 387.432" y="-323.7">Process</tspan></text><text id="text50" x="332" y="-304.3" fill="#fff" fill-opacity="1" fill-rule="nonzero" stroke="none" font-family="Carlito" font-size="18" font-variant="normal" font-weight="normal" transform="scale(1,-1)" writing-mode="lr-tb" style="-inkscape-font-specification:Carlito"><tspan id="tspan48" x="332 339.074 348.56 357.866 363.662 372.266 379.34 387.53" y="-304.3">subtask</tspan></text><text id="text56" x="349.5" y="-284.9" fill="#fff" fill-opacity="1" fill-rule="nonzero" stroke="none" font-family="Carlito" font-size="18" font-variant="normal" font-weight="normal" transform="scale(1,-1)" writing-mode="lr-tb" style="-inkscape-font-specification:Carlito"><tspan id="tspan54" x="349.5 358.482" y="-284.9">#N</tspan></text><text id="text62" x="352.59" y="-367.5" fill="#000" fill-opacity="1" fill-rule="nonzero" stroke="none" font-family="Carlito" font-size="18" font-variant="normal" font-weight="bold" transform="scale(1,-1)" writing-mode="lr-tb" style="-inkscape-font-specification:Carlito-Bold"><tspan id="tspan60" x="352.59 357.396 362.202" y="-367.5">...</tspan></text><path id="path841" fill="#525e66" fill-opacity="1" fill-rule="evenodd" stroke="#fff" stroke-dasharray="none" stroke-miterlimit="4" stroke-opacity="1" stroke-width="1" d="m 317.29999,451.11855 v 0 0.4 0.4 0.4 l 0.1,0.4 0.1,0.4 0.1,0.3 0.2,0.4 0.1,0.4 0.2,0.3 0.2,0.4 0.2,0.3 0.2,0.3 0.2,0.3 0.3,0.4 0.3,0.2 0.2,0.3 0.4,0.3 0.3,0.2 0.3,0.2 0.3,0.2 0.4,0.2 0.3,0.2 0.4,0.1 0.4,0.2 0.3,0.1 0.4,0.1 0.4,0.1 h 0.4 0.4 0.4 69.9 v 0 h 0.4 0.4 0.4 l 0.4,-0.1 0.4,-0.1 0.3,-0.1 0.4,-0.2 0.4,-0.1 0.4,-0.2 0.3,-0.2 0.3,-0.2 0.3,-0.2 0.4,-0.2 0.3,-0.3 0.3,-0.3 0.2,-0.2 0.3,-0.4 0.2,-0.3 0.2,-0.3 0.2,-0.3 0.2,-0.4 0.2,-0.3 0.2,-0.4 0.1,-0.4 0.1,-0.3 0.1,-0.4 0.1,-0.4 v -0.4 l 0.1,-0.4 v -0.4 -60.5 0 -0.4 l -0.1,-0.4 v -0.4 l -0.1,-0.4 -0.1,-0.4 -0.1,-0.4 -0.1,-0.3 -0.2,-0.4 -0.2,-0.3 -0.1,-0.4 -0.3,-0.3 -0.2,-0.4 -0.2,-0.3 -0.3,-0.3 -0.2,-0.3 -0.3,-0.2 -0.3,-0.3 -0.3,-0.2 -0.4,-0.3 -0.3,-0.2 -0.3,-0.2 -0.4,-0.1 -0.4,-0.2 -0.3,-0.1 -0.4,-0.1 -0.4,-0.1 -0.4,-0.1 h -0.4 l -0.4,-0.1 h -0.3 -70 v 0 h -0.4 -0.4 l -0.4,0.1 -0.4,0.1 -0.4,0.1 -0.3,0.1 -0.4,0.1 -0.4,0.2 -0.3,0.1 -0.4,0.2 -0.3,0.2 -0.3,0.3 -0.3,0.2 -0.4,0.2 -0.2,0.3 -0.3,0.3 -0.2,0.3 -0.3,0.3 -0.2,0.4 -0.2,0.3 -0.2,0.3 -0.2,0.4 -0.1,0.3 -0.2,0.4 -0.1,0.4 -0.1,0.4 -0.1,0.3 v 0.4 0.4 0.4 z m 0,7.5 z m 85,-75.6 z"/><path id="path847" fill="none" stroke="#fff" stroke-dasharray="none" stroke-linecap="butt" stroke-linejoin="round" stroke-miterlimit="10" stroke-opacity="1" stroke-width="2.009" d="M 317.29999,458.61855 Z"/><path id="path851" fill="none" stroke="#fff" stroke-dasharray="none" stroke-linecap="butt" stroke-linejoin="round" stroke-miterlimit="10" stroke-opacity="1" stroke-width="2.009" d="M 402.29999,383.01855 Z"/><text id="text857" x="332.1" y="-433.019" fill="#fff" fill-opacity="1" fill-rule="nonzero" stroke="none" font-family="Carlito" font-size="18" font-variant="normal" font-weight="normal" transform="scale(1,-1)" writing-mode="lr-tb" style="-inkscape-font-specification:Carlito"><tspan id="tspan855" x="332.1 341.298 347.292 356.778 364.374 373.356 380.358 387.432" y="-433.019">Process</tspan></text><text id="text863" x="332" y="-413.619" fill="#fff" fill-opacity="1" fill-rule="nonzero" stroke="none" font-family="Carlito" font-size="18" font-variant="normal" font-weight="normal" transform="scale(1,-1)" writing-mode="lr-tb" style="-inkscape-font-specification:Carlito"><tspan id="tspan861" x="332 339.074 348.56 357.866 363.662 372.266 379.34 387.53" y="-413.619">subtask</tspan></text><text id="text869" x="349.5" y="-394.219" fill="#fff" fill-opacity="1" fill-rule="nonzero" stroke="none" font-family="Carlito" font-size="18" font-stretch="normal" font-style="normal" font-variant="normal" font-weight="normal" text-anchor="start" transform="scale(1,-1)" writing-mode="lr-tb" style="-inkscape-font-specification:'Carlito, Normal';font-variant-ligatures:normal;font-variant-caps:normal;font-variant-numeric:normal;font-feature-settings:normal;text-align:start"><tspan id="tspan881" x="349.5" y="-394.219">#1</tspan></text><path id="path883" fill="#525e66" fill-opacity="1" fill-rule="evenodd" stroke="#fff" stroke-dasharray="none" stroke-miterlimit="4" stroke-opacity="1" stroke-width="1" d="m 181.44782,387.52628 v 0 0.28207 0.28207 0.28207 l 0.1,0.28208 0.1,0.28207 0.1,0.21155 0.2,0.28208 0.1,0.28207 0.2,0.21155 0.2,0.28208 0.2,0.21155 0.2,0.21156 0.2,0.21155 0.3,0.28207 0.3,0.14104 0.2,0.21155 0.4,0.21156 0.3,0.14104 0.3,0.14103 0.3,0.14104 0.4,0.14103 0.3,0.14104 0.4,0.0705 0.4,0.14104 0.3,0.0705 0.4,0.0705 0.4,0.0705 h 0.4 0.4 0.4 69.9 v 0 h 0.4 0.4 0.4 l 0.4,-0.0705 0.4,-0.0705 0.3,-0.0705 0.4,-0.14104 0.4,-0.0705 0.4,-0.14104 0.3,-0.14103 0.3,-0.14104 0.3,-0.14103 0.4,-0.14104 0.3,-0.21156 0.3,-0.21155 0.2,-0.14104 0.3,-0.28207 0.2,-0.21155 0.2,-0.21156 0.2,-0.21155 0.2,-0.28208 0.2,-0.21155 0.2,-0.28207 0.1,-0.28208 0.1,-0.21155 0.1,-0.28207 0.1,-0.28208 v -0.28207 l 0.1,-0.28207 v -0.28207 -42.66351 0 -0.28207 l -0.1,-0.28207 v -0.28208 l -0.1,-0.28207 -0.1,-0.28207 -0.1,-0.28208 -0.1,-0.21155 -0.2,-0.28207 -0.2,-0.21156 -0.1,-0.28207 -0.3,-0.21155 -0.2,-0.28208 -0.2,-0.21155 -0.3,-0.21156 -0.2,-0.21155 -0.3,-0.14104 -0.3,-0.21155 -0.3,-0.14104 -0.4,-0.21155 -0.3,-0.14104 -0.3,-0.14104 -0.4,-0.0705 -0.4,-0.14104 -0.3,-0.0705 -0.4,-0.0705 -0.4,-0.0705 -0.4,-0.0705 h -0.4 l -0.4,-0.0705 h -0.3 -70 v 0 h -0.4 -0.4 l -0.4,0.0705 -0.4,0.0705 -0.4,0.0705 -0.3,0.0705 -0.4,0.0705 -0.4,0.14104 -0.3,0.0705 -0.4,0.14104 -0.3,0.14104 -0.3,0.21155 -0.3,0.14104 -0.4,0.14103 -0.2,0.21156 -0.3,0.21155 -0.2,0.21156 -0.3,0.21155 -0.2,0.28208 -0.2,0.21155 -0.2,0.21155 -0.2,0.28208 -0.1,0.21155 -0.2,0.28207 -0.1,0.28208 -0.1,0.28207 -0.1,0.21155 v 0.28208 0.28207 0.28207 z m 0,5.28886 z m 85,-53.31175 z"/><g id="g891" transform="translate(-135.85218,60.496674)"><path id="path889" fill="none" stroke="#fff" stroke-dasharray="none" stroke-linecap="butt" stroke-linejoin="round" stroke-miterlimit="10" stroke-opacity="1" stroke-width="2.009" d="M 317.3,349.3 Z"/></g><g id="g895" transform="translate(-135.85218,60.496674)"><path id="path893" fill="none" stroke="#fff" stroke-dasharray="none" stroke-linecap="butt" stroke-linejoin="round" stroke-miterlimit="10" stroke-opacity="1" stroke-width="2.009" d="M 402.3,273.7 Z"/></g><g id="g901" transform="translate(-128.19564,38.135046)"><text id="text899" fill="#fff" fill-opacity="1" fill-rule="nonzero" stroke="none" font-family="Carlito" font-size="18" font-stretch="normal" font-style="normal" font-variant="normal" font-weight="normal" text-anchor="start" transform="matrix(1,0,0,-1,332.1,323.7)" writing-mode="lr-tb" style="-inkscape-font-specification:'Carlito, Normal';font-variant-ligatures:normal;font-variant-caps:normal;font-variant-numeric:normal;font-feature-settings:normal;text-align:start"><tspan id="tspan959" x="0" y="0">Input</tspan></text></g><path id="path961" fill="#525e66" fill-opacity="1" fill-rule="evenodd" stroke="#fff" stroke-dasharray="none" stroke-miterlimit="4" stroke-opacity="1" stroke-width="1" d="m 453.15218,387.52628 v 0 0.28207 0.28207 0.28207 l 0.1,0.28208 0.1,0.28207 0.1,0.21155 0.2,0.28208 0.1,0.28207 0.2,0.21155 0.2,0.28208 0.2,0.21155 0.2,0.21156 0.2,0.21155 0.3,0.28207 0.3,0.14104 0.2,0.21155 0.4,0.21156 0.3,0.14104 0.3,0.14103 0.3,0.14104 0.4,0.14103 0.3,0.14104 0.4,0.0705 0.4,0.14104 0.3,0.0705 0.4,0.0705 0.4,0.0705 h 0.4 0.4 0.4 69.9 v 0 h 0.4 0.4 0.4 l 0.4,-0.0705 0.4,-0.0705 0.3,-0.0705 0.4,-0.14104 0.4,-0.0705 0.4,-0.14104 0.3,-0.14103 0.3,-0.14104 0.3,-0.14103 0.4,-0.14104 0.3,-0.21156 0.3,-0.21155 0.2,-0.14104 0.3,-0.28207 0.2,-0.21155 0.2,-0.21156 0.2,-0.21155 0.2,-0.28208 0.2,-0.21155 0.2,-0.28207 0.1,-0.28208 0.1,-0.21155 0.1,-0.28207 0.1,-0.28208 v -0.28207 l 0.1,-0.28207 v -0.28207 -42.66351 0 -0.28207 l -0.1,-0.28207 v -0.28208 l -0.1,-0.28207 -0.1,-0.28207 -0.1,-0.28208 -0.1,-0.21155 -0.2,-0.28207 -0.2,-0.21156 -0.1,-0.28207 -0.3,-0.21155 -0.2,-0.28208 -0.2,-0.21155 -0.3,-0.21156 -0.2,-0.21155 -0.3,-0.14104 -0.3,-0.21155 -0.3,-0.14104 -0.4,-0.21155 -0.3,-0.14104 -0.3,-0.14104 -0.4,-0.0705 -0.4,-0.14104 -0.3,-0.0705 -0.4,-0.0705 -0.4,-0.0705 -0.4,-0.0705 h -0.4 l -0.4,-0.0705 h -0.3 -70 v 0 h -0.4 -0.4 l -0.4,0.0705 -0.4,0.0705 -0.4,0.0705 -0.3,0.0705 -0.4,0.0705 -0.4,0.14104 -0.3,0.0705 -0.4,0.14104 -0.3,0.14104 -0.3,0.21155 -0.3,0.14104 -0.4,0.14103 -0.2,0.21156 -0.3,0.21155 -0.2,0.21156 -0.3,0.21155 -0.2,0.28208 -0.2,0.21155 -0.2,0.21155 -0.2,0.28208 -0.1,0.21155 -0.2,0.28207 -0.1,0.28208 -0.1,0.28207 -0.1,0.21155 v 0.28208 0.28207 0.28207 z m 0,5.28886 z m 85,-53.31175 z"/><g id="g965" transform="translate(135.85218,60.496674)"><path id="path963" fill="none" stroke="#fff" stroke-dasharray="none" stroke-linecap="butt" stroke-linejoin="round" stroke-miterlimit="10" stroke-opacity="1" stroke-width="2.009" d="M 402.3,273.7 Z"/></g><g id="g971" transform="translate(140.52044,36.27616)"><text id="text969" fill="#fff" fill-opacity="1" fill-rule="nonzero" stroke="none" font-family="Carlito" font-size="18" font-stretch="normal" font-style="normal" font-variant="normal" font-weight="normal" text-anchor="start" transform="matrix(1,0,0,-1,332.1,323.7)" writing-mode="lr-tb" style="-inkscape-font-specification:'Carlito, Normal';font-variant-ligatures:normal;font-variant-caps:normal;font-variant-numeric:normal;font-feature-settings:normal;text-align:start"><tspan id="tspan973" x="0" y="0">Result</tspan></text></g><path id="path1104" fill="#b3b6b8" fill-opacity="1" fill-rule="evenodd" stroke="#fff" stroke-opacity="1" d="m 269.75956,401.82959 10.41326,9.08978 -4.07126,4.75865 20.64999,-2.76727 -0.15757,-20.84862 -4.09023,4.66047 -10.49248,-8.97262 z m -4.07126,4.75866 z m 41.39816,-5.55351 z"/><path id="path1106" fill="#b3b6b8" fill-opacity="1" fill-rule="evenodd" stroke="#fff" stroke-opacity="1" d="m 425.70338,423.40482 10.96155,-9.33083 3.99136,4.72536 0.85173,-21.23216 -21.07137,-2.57049 3.99137,4.72536 -10.96155,9.33083 z m 3.99136,4.72536 z m 1.70346,-42.46431 z"/></g></g></g></svg>