<svg xmlns="http://www.w3.org/2000/svg" xmlns:svg="http://www.w3.org/2000/svg" id="svg2" width="1255.273" height="282.652" version="1.1" viewBox="0 0 1255.273 282.652" xml:space="preserve"><metadata id="metadata8"/><defs id="defs6"><clipPath id="clipPath18" clipPathUnits="userSpaceOnUse"><path id="path16" d="M 0,1.2207e-4 H 720 V 450.00012 H 0 Z" clip-rule="evenodd"/></clipPath><clipPath id="clipPath28" clipPathUnits="userSpaceOnUse"><path id="path26" d="M 1.0729e-5,0 H 720.00001 V 450 H 1.0729e-5 Z" clip-rule="evenodd"/></clipPath><clipPath id="clipPath18-5" clipPathUnits="userSpaceOnUse"><path id="path16-0" d="M 0,1.2207e-4 H 720 V 450.00012 H 0 Z" clip-rule="evenodd"/></clipPath><clipPath id="clipPath28-8" clipPathUnits="userSpaceOnUse"><path id="path26-5" d="M 1.0729e-5,0 H 720.00001 V 450 H 1.0729e-5 Z" clip-rule="evenodd"/></clipPath><clipPath id="clipPath40" clipPathUnits="userSpaceOnUse"><path id="path38-3" d="M 1.0729e-5,0 H 720.00001 V 450 H 1.0729e-5 Z" clip-rule="evenodd"/></clipPath><clipPath id="clipPath80" clipPathUnits="userSpaceOnUse"><path id="path78" d="M 1.0729e-5,0 H 720.00001 V 450 H 1.0729e-5 Z" clip-rule="evenodd"/></clipPath><clipPath id="clipPath92" clipPathUnits="userSpaceOnUse"><path id="path90" d="M 1.0729e-5,0 H 720.00001 V 450 H 1.0729e-5 Z" clip-rule="evenodd"/></clipPath><clipPath id="clipPath104" clipPathUnits="userSpaceOnUse"><path id="path102" d="M 1.0729e-5,0 H 720.00001 V 450 H 1.0729e-5 Z" clip-rule="evenodd"/></clipPath><clipPath id="clipPath116" clipPathUnits="userSpaceOnUse"><path id="path114" d="M 1.0729e-5,0 H 720.00001 V 450 H 1.0729e-5 Z" clip-rule="evenodd"/></clipPath><clipPath id="clipPath154" clipPathUnits="userSpaceOnUse"><path id="path152" d="M 1.0729e-5,0 H 720.00001 V 450 H 1.0729e-5 Z" clip-rule="evenodd"/></clipPath><clipPath id="clipPath166" clipPathUnits="userSpaceOnUse"><path id="path164" d="M 1.0729e-5,0 H 720.00001 V 450 H 1.0729e-5 Z" clip-rule="evenodd"/></clipPath><clipPath id="clipPath28-8-7" clipPathUnits="userSpaceOnUse"><path id="path26-5-4" d="M 1.0729e-5,0 H 720.00001 V 450 H 1.0729e-5 Z" clip-rule="evenodd"/></clipPath></defs><g id="g10" transform="matrix(1.3333333,0,0,-1.3333333,-259.17086,585.67)"><path id="path34" fill="#000" fill-opacity="1" fill-rule="nonzero" stroke="none" stroke-width="1.566" d="m 204.71972,309.24096 h 198.99252 v -3.52435 H 204.71972 Z m 197.23817,3.52435 10.57304,-5.29435 -10.57304,-5.27871 z"/><path id="path36" fill="#000" fill-opacity="1" fill-rule="nonzero" stroke="none" stroke-width="1.566" d="m 204.71972,336.26096 h 198.99252 v -3.52435 H 204.71972 Z m 197.23817,3.52435 10.57304,-5.29436 -10.57304,-5.27869 z"/><path id="path38" fill="#000" fill-opacity="1" fill-rule="nonzero" stroke="none" stroke-width="1.566" d="m 204.71972,363.28095 h 198.99252 v -3.52434 H 204.71972 Z m 197.23817,3.52436 10.57304,-5.29436 -10.57304,-5.2787 z"/><path id="path40" fill="#000" fill-opacity="1" fill-rule="nonzero" stroke="none" stroke-width="1.566" d="m 204.71972,389.12618 h 198.99252 v -3.52436 H 204.71972 Z m 197.23817,3.52434 10.57304,-5.29435 -10.57304,-5.2787 z"/><text id="text32-9" x="786.115" y="-282.764" fill="#000" fill-opacity="1" fill-rule="nonzero" stroke="none" stroke-width="1.314" font-family="Noto Sans" font-size="20.725" font-stretch="normal" font-style="normal" font-variant="normal" font-weight="normal" text-anchor="start" transform="scale(1,-1)" writing-mode="lr-tb" style="-inkscape-font-specification:'Noto Sans, Normal';font-variant-ligatures:normal;font-variant-caps:normal;font-variant-numeric:normal;font-feature-settings:normal;text-align:start"><tspan id="tspan3939" x="786.115" y="-282.764">Parallel region</tspan></text><path id="path46" fill="#000" fill-opacity="1" fill-rule="nonzero" stroke="none" stroke-width="1.314" d="m 723.77475,351.28538 h 64.1143 v -2.95609 h -64.1143 z m 55.98177,4.96623 11.06236,-6.45084 -11.06236,-6.43771 c -0.69632,-0.42041 -1.60286,-0.18393 -2.02327,0.52553 -0.40729,0.70946 -0.1708,1.616 0.53866,2.02328 l 8.86827,5.17644 v -2.56195 l -8.86827,5.17645 c -0.70946,0.40728 -0.94595,1.31382 -0.53866,2.02327 0.42041,0.70947 1.32695,0.94596 2.02327,0.52553 z"/><path id="path48" fill="#000" fill-opacity="1" fill-rule="nonzero" stroke="none" stroke-width="1.314" d="m 792.00131,349.15699 22.7159,34.08044 -2.45683,1.64227 -22.71591,-34.08043 z m 24.35818,31.21631 1.23499,9.8405 -8.61865,-4.92681 z"/><path id="path50" fill="#5173c9" fill-opacity="1" fill-rule="nonzero" stroke="none" stroke-width="1.314" d="m 791.43636,348.86796 20.20652,10.10325 -1.32696,2.65392 -20.2065,-10.10326 z m 20.20652,6.80558 5.9516,7.92232 h -9.91933 z"/><path id="path52" fill="#5173c9" fill-opacity="1" fill-rule="nonzero" stroke="none" stroke-width="1.314" d="m 791.43636,351.12772 20.20652,-10.10325 -1.32696,-2.64077 -20.2065,10.10325 z m 20.20652,-6.79243 5.9516,-7.93546 h -9.91933 z"/><path id="path54" fill="#5173c9" fill-opacity="1" fill-rule="nonzero" stroke="none" stroke-width="1.314" d="m 792.00131,350.62848 22.7159,-34.08044 -2.45683,-1.64227 -22.71591,34.08044 z m 24.35818,-31.20318 1.23499,-9.84049 -8.61865,4.91367 z"/><path id="path56" fill="#5173c9" fill-opacity="1" fill-rule="nonzero" stroke="none" stroke-width="1.314" d="m 817.37112,310.88548 h 49.59663 v -2.95608 h -49.59663 z m 48.12515,2.95609 8.86827,-4.44069 -8.86827,-4.42758 z"/><path id="path58" fill="#5173c9" fill-opacity="1" fill-rule="nonzero" stroke="none" stroke-width="1.314" d="m 817.37112,337.49029 h 49.59663 v -2.95608 h -49.59663 z m 48.12515,2.9561 8.86827,-4.44071 -8.86827,-4.42756 z"/><path id="path60" fill="#5173c9" fill-opacity="1" fill-rule="nonzero" stroke="none" stroke-width="1.314" d="m 817.37112,365.08047 h 49.59663 v -2.95609 h -49.59663 z m 48.12515,2.95609 8.86827,-4.4407 -8.86827,-4.42757 z"/><path id="path62" fill="#000" fill-opacity="1" fill-rule="nonzero" stroke="none" stroke-width="1.314" d="m 817.37112,391.68528 h 49.59663 v -2.95609 h -49.59663 z m 48.12515,2.95608 8.86827,-4.4407 -8.86827,-4.42756 z"/><path id="path64" fill="#000" fill-opacity="1" fill-rule="nonzero" stroke="none" stroke-width="1.314" d="m 875.75719,391.02836 22.71591,-34.08042 -2.45684,-1.64227 -22.71591,34.08043 z m 24.35818,-31.20316 1.23499,-9.8405 -8.61865,4.91368 z"/><path id="path66" fill="#5173c9" fill-opacity="1" fill-rule="nonzero" stroke="none" stroke-width="1.314" d="m 875.19224,364.92281 20.20652,-10.10326 -1.32695,-2.64077 -20.20652,10.10326 z m 20.20652,-6.79243 5.9516,-7.93546 h -9.91933 z"/><path id="path68" fill="#5173c9" fill-opacity="1" fill-rule="nonzero" stroke="none" stroke-width="1.314" d="m 875.19224,335.07287 20.20652,10.10326 -1.32695,2.65391 -20.20652,-10.10326 z m 20.20652,6.80558 5.9516,7.92232 h -9.91933 z"/><path id="path70" fill="#5173c9" fill-opacity="1" fill-rule="nonzero" stroke="none" stroke-width="1.314" d="m 875.75719,308.7571 22.71591,34.08044 -2.45684,1.64227 -22.71591,-34.08043 z m 24.35818,31.21631 1.23499,9.82736 -8.61865,-4.91368 z"/><path id="path72" fill="#000" fill-opacity="1" fill-rule="nonzero" stroke="none" stroke-width="1.314" d="m 901.12701,351.28538 h 37.29928 v -2.95609 h -37.29928 z m 29.17989,4.96623 11.04921,-6.45084 -11.04921,-6.43771 c -0.70947,-0.42041 -1.616,-0.18393 -2.02328,0.52553 -0.40728,0.70946 -0.17079,1.616 0.52552,2.02328 v 0 l 8.86827,5.17644 v -2.56195 l -8.86827,5.17645 c -0.69631,0.40728 -0.9328,1.31382 -0.52552,2.02327 0.40728,0.70947 1.31381,0.94596 2.02328,0.52553 z"/><text id="text84" x="717.206" y="-325.272" fill="#000" fill-opacity="1" fill-rule="nonzero" stroke="none" stroke-width="1.314" font-family="Noto Sans" font-size="20.725" font-stretch="normal" font-style="normal" font-variant="normal" font-weight="normal" text-anchor="start" transform="scale(1,-1)" writing-mode="lr-tb" style="-inkscape-font-specification:'Noto Sans, Normal';font-variant-ligatures:normal;font-variant-caps:normal;font-variant-numeric:normal;font-feature-settings:normal;text-align:start"><tspan id="tspan3807" x="717.206" y="-325.272">Serial</tspan><tspan id="tspan3809" x="717.206" y="-299.366">region</tspan></text><path id="path122" fill="#5173c9" fill-opacity="1" fill-rule="nonzero" stroke="none" stroke-width="1.314" d="m 943.74725,349.15699 22.71592,34.08044 -2.45685,1.64227 -22.71591,-34.08043 z m 24.35818,31.21631 1.235,9.8405 -8.61865,-4.92681 z"/><path id="path124" fill="#5173c9" fill-opacity="1" fill-rule="nonzero" stroke="none" stroke-width="1.314" d="m 943.18231,348.86796 20.20652,10.10325 -1.32696,2.65392 -20.20652,-10.10326 z m 20.20652,6.80558 5.9516,7.92232 h -9.91933 z"/><path id="path126" fill="#000" fill-opacity="1" fill-rule="nonzero" stroke="none" stroke-width="1.314" d="m 943.18231,351.12772 20.20652,-10.10325 -1.32696,-2.64077 -20.20652,10.10325 z m 20.20652,-6.79243 5.9516,-7.93546 h -9.91933 z"/><path id="path128" fill="#5173c9" fill-opacity="1" fill-rule="nonzero" stroke="none" stroke-width="1.314" d="m 943.74725,350.62848 22.71592,-34.08044 -2.45685,-1.64227 -22.71591,34.08044 z m 24.35818,-31.20318 1.235,-9.84049 -8.61865,4.91367 z"/><path id="path130" fill="#5173c9" fill-opacity="1" fill-rule="nonzero" stroke="none" stroke-width="1.314" d="m 969.11707,310.88548 h 49.59663 v -2.95608 h -49.59663 z m 48.12513,2.95609 8.8683,-4.44069 -8.8683,-4.42758 z"/><path id="path132" fill="#000" fill-opacity="1" fill-rule="nonzero" stroke="none" stroke-width="1.314" d="m 969.11707,338.47566 h 49.59663 v -2.95609 h -49.59663 z m 48.12513,2.95609 8.8683,-4.4407 -8.8683,-4.42757 z"/><path id="path134" fill="#5173c9" fill-opacity="1" fill-rule="nonzero" stroke="none" stroke-width="1.314" d="m 969.11707,365.08047 h 49.59663 v -2.95609 h -49.59663 z m 48.12513,2.95609 8.8683,-4.4407 -8.8683,-4.42757 z"/><path id="path136" fill="#5173c9" fill-opacity="1" fill-rule="nonzero" stroke="none" stroke-width="1.314" d="m 969.11707,391.68528 h 49.59663 v -2.95609 h -49.59663 z m 48.12513,2.95608 8.8683,-4.4407 -8.8683,-4.42756 z"/><path id="path138" fill="#5173c9" fill-opacity="1" fill-rule="nonzero" stroke="none" stroke-width="1.314" d="m 1027.5031,391.02836 22.7159,-34.08042 -2.4568,-1.64227 -22.7159,34.08043 z m 24.3582,-31.20316 1.235,-9.8405 -8.6186,4.91368 z"/><path id="path140" fill="#5173c9" fill-opacity="1" fill-rule="nonzero" stroke="none" stroke-width="1.314" d="m 1026.9382,364.92281 20.2065,-10.10326 -1.3269,-2.64077 -20.2066,10.10326 z m 20.2065,-6.79243 5.9516,-7.93546 h -9.9193 z"/><path id="path142" fill="#000" fill-opacity="1" fill-rule="nonzero" stroke="none" stroke-width="1.314" d="m 1026.9382,335.07287 20.2065,10.10326 -1.3269,2.65391 -20.2066,-10.10326 z m 20.2065,6.80558 5.9516,7.92232 h -9.9193 z"/><path id="path144" fill="#5173c9" fill-opacity="1" fill-rule="nonzero" stroke="none" stroke-width="1.314" d="m 1027.5031,308.7571 22.7159,34.08044 -2.4568,1.64227 -22.7159,-34.08043 z m 24.3582,31.21631 1.235,9.82736 -8.6186,-4.91368 z"/><path id="path146" fill="#000" fill-opacity="1" fill-rule="nonzero" stroke="none" stroke-width="1.314" d="m 1052.873,351.28538 h 64.1274 v -2.95609 h -64.1274 z m 55.9949,4.96623 11.0623,-6.45084 -11.0623,-6.43771 c -0.6963,-0.42041 -1.6028,-0.18393 -2.0232,0.52553 -0.4074,0.70946 -0.1708,1.616 0.5385,2.02328 l 8.8684,5.17644 v -2.56195 l -8.8684,5.17645 c -0.7093,0.40728 -0.9459,1.31382 -0.5385,2.02327 0.4204,0.70947 1.3269,0.94596 2.0232,0.52553 z"/><text font-size="20.725" style="-inkscape-font-specification:'Noto Sans, Normal';font-variant-ligatures:normal;font-variant-caps:normal;font-variant-numeric:normal;font-feature-settings:normal;text-align:start" id="text32-9-9" x="214.096" y="-281.82" fill="#000" fill-opacity="1" fill-rule="nonzero" stroke="none" stroke-width="1.314" font-family="Noto Sans" font-stretch="normal" font-style="normal" font-variant="normal" font-weight="normal" text-anchor="start" transform="scale(1,-1)" writing-mode="lr-tb"><tspan id="tspan129" x="214.096" y="-281.82" stroke-width="1.314">Parallel processes</tspan></text><text font-size="20.725" style="-inkscape-font-specification:'Noto Sans, Normal';font-variant-ligatures:normal;font-variant-caps:normal;font-variant-numeric:normal;font-feature-settings:normal;text-align:start" id="text3821" x="891.373" y="-399.446" fill="#000" fill-opacity="1" fill-rule="nonzero" stroke="none" stroke-width="1.314" font-family="Noto Sans" font-stretch="normal" font-style="normal" font-variant="normal" font-weight="normal" text-anchor="start" transform="scale(1,-1)" writing-mode="lr-tb"><tspan id="tspan3817" x="891.373" y="-399.446">Serial</tspan><tspan id="tspan3819" x="891.373" y="-373.54">region</tspan></text><text font-size="20.725" style="-inkscape-font-specification:'Noto Sans, Normal';font-variant-ligatures:normal;font-variant-caps:normal;font-variant-numeric:normal;font-feature-settings:normal;text-align:start" id="text3821-4" x="1073.982" y="-326.604" fill="#000" fill-opacity="1" fill-rule="nonzero" stroke="none" stroke-width="1.314" font-family="Noto Sans" font-stretch="normal" font-style="normal" font-variant="normal" font-weight="normal" text-anchor="start" transform="scale(1,-1)" writing-mode="lr-tb"><tspan id="tspan3817-3" x="1073.982" y="-326.604" stroke-width="1.314">Serial</tspan><tspan id="tspan3819-0" x="1073.982" y="-300.698" stroke-width="1.314">region</tspan></text><text font-size="20.725" style="-inkscape-font-specification:'Noto Sans, Normal';font-variant-ligatures:normal;font-variant-caps:normal;font-variant-numeric:normal;font-feature-settings:normal;text-align:start" id="text3943" x="940.931" y="-282.764" fill="#000" fill-opacity="1" fill-rule="nonzero" stroke="none" stroke-width="1.314" font-family="Noto Sans" font-stretch="normal" font-style="normal" font-variant="normal" font-weight="normal" text-anchor="start" transform="scale(1,-1)" writing-mode="lr-tb"><tspan id="tspan3941" x="940.931" y="-282.764">Parallel region</tspan></text><rect id="rect884" width="350.923" height="207.737" x="196.504" y="-437.127" fill="none" fill-opacity=".957" stroke="red" stroke-dasharray="none" stroke-dashoffset="0" stroke-miterlimit="3.3" stroke-opacity=".986" stroke-width="4.252" opacity="1" ry="45.224" transform="scale(1,-1)"/><text id="text888" x="439.438" y="-332.288" fill="red" fill-opacity="1" fill-rule="nonzero" stroke="#000" stroke-dasharray="none" stroke-miterlimit="4" stroke-opacity="1" stroke-width=".15" font-family="Noto Sans" font-size="36" font-stretch="normal" font-style="normal" font-variant="normal" font-weight="bold" text-anchor="start" transform="scale(1,-1)" writing-mode="lr-tb" style="-inkscape-font-specification:'Noto Sans, Bold';font-variant-ligatures:normal;font-variant-caps:normal;font-variant-numeric:normal;font-feature-settings:normal;text-align:start"><tspan id="tspan886" x="439.438" y="-332.288" fill="red" fill-opacity="1" stroke="#000" stroke-dasharray="none" stroke-miterlimit="4" stroke-opacity="1" stroke-width=".15" font-family="Noto Sans" font-size="36" font-stretch="normal" font-style="normal" font-variant="normal" font-weight="bold" text-anchor="start" writing-mode="lr-tb" style="-inkscape-font-specification:'Noto Sans, Bold';font-variant-ligatures:normal;font-variant-caps:normal;font-variant-numeric:normal;font-feature-settings:normal;text-align:start">MPI</tspan></text></g></svg>